<?xml version="1.0" standalone="no"?>
<!DOCTYPE svg PUBLIC "-//W3C//DTD SVG 1.1//EN" "http://www.w3.org/Graphics/SVG/1.1/DTD/svg11.dtd" >
<svg xmlns="http://www.w3.org/2000/svg" xmlns:xlink="http://www.w3.org/1999/xlink" version="1.1">
<metadata>
Created by FontForge 20150913 at Fri Apr 15 07:55:01 2016
 By Jimmy Wärting
Copyright \(c\)2016, Okomito designed by Alfredo Marco Pradil \(ammpradil@gmail.com\). Okomito is a trademark of Alfredo Marco Pradil.
</metadata>
<defs>
<font id="Okomito-Regular" horiz-adv-x="560" >
  <font-face 
    font-family="Okomito"
    font-weight="400"
    font-stretch="normal"
    units-per-em="1000"
    panose-1="0 0 5 0 0 0 0 0 0 0"
    ascent="800"
    descent="-200"
    x-height="512"
    cap-height="690"
    bbox="-634 -245 1044 1046"
    underline-thickness="40"
    underline-position="-100"
    stemh="77"
    stemv="97"
    unicode-range="U+0020-FB02"
  />
<missing-glyph horiz-adv-x="439" 
d="M19 0v488h400v-488h-400zM69 50h300v388h-300v-388z" />
    <glyph glyph-name="f_f" unicode="ff" horiz-adv-x="607" 
d="M538 624c-47 0 -76 -30 -76 -77v-35h132v-65h-132v-447h-81v447h-91h-102v-447h-82v447h-91v65h91v32c0 89 57 146 150 146h63v-66h-56c-46 0 -75 -30 -75 -77v-35h131h62v32c0 89 56 146 149 146h64v-66h-56z" />
    <glyph glyph-name="f_f_i" unicode="ffi" horiz-adv-x="844" 
d="M385 544c0 89 57 146 150 146h63v-66h-56c-46 0 -75 -30 -75 -77v-35h131v-65h-131v-447h-82v447h-91h-106v-447h-82v447h-91v65h91v32c0 89 57 146 150 146h63v-66h-56c-46 0 -75 -30 -75 -77v-35h131h66v32zM671 690h91v-98h-91v98zM676 0v512h81v-512h-81z" />
    <glyph glyph-name="f_f_l" unicode="ffl" horiz-adv-x="799" 
d="M368 544c0 89 56 146 149 146h64v-66h-56c-47 0 -76 -30 -76 -77v-35h132v-65h-132v-447h-81v447h-91h-89v-447h-82v447h-91v65h91v32c0 89 57 146 150 146h63v-66h-56c-46 0 -75 -30 -75 -77v-35h131h49v32zM635 690h82v-690h-82v690z" />
    <glyph glyph-name="fi" unicode="fi" horiz-adv-x="555" 
d="M469 512v-512h-82v448h-200v-448h-82v448h-90v64h90v55c0 78 64 123 135 123h60v-67h-52c-42 0 -61 -21 -61 -56v-55h282zM382 690h92v-98h-92v98z" />
    <glyph glyph-name="fl" unicode="fl" horiz-adv-x="556" 
d="M106 0v447h-91v65h91v32c0 89 57 146 150 146h63v-66h-56c-46 0 -75 -30 -75 -77v-35h131v-65h-131v-447h-82zM392 0v690h82v-690h-82z" />
    <glyph glyph-name="arrowright" unicode="&#x2d;&#x3e;" horiz-adv-x="1073" 
d="M572 61v73l267 143h-790v66h791l-268 143v73l447 -247z" />
    <glyph glyph-name="arrowleft" unicode="&#x3c;&#x2d;" horiz-adv-x="1072" 
d="M1023 343v-66h-790l267 -143v-73l-447 251l447 247v-73l-268 -143h791z" />
    <glyph glyph-name=".notdef" horiz-adv-x="439" 
d="M19 0v488h400v-488h-400zM69 50h300v388h-300v-388z" />
    <glyph glyph-name="A" unicode="A" horiz-adv-x="585" 
d="M490 0l-49 156h-296l-49 -156h-92l231 690h117l230 -690h-92zM167 227h251l-124 396h-2z" />
    <glyph glyph-name="Aacute" unicode="&#xc1;" horiz-adv-x="585" 
d="M474 868l-147 -117h-65l108 117h104zM490 0l-49 156h-296l-49 -156h-92l231 690h117l230 -690h-92zM167 227h251l-124 396h-2z" />
    <glyph glyph-name="Abreve" unicode="&#x102;" horiz-adv-x="585" 
d="M294 736c-83 0 -150 47 -150 132h65c0 -47 38 -77 85 -77c46 0 84 31 84 77h65c0 -85 -66 -132 -149 -132zM490 0l-49 156h-296l-49 -156h-92l231 690h117l230 -690h-92zM167 227h251l-124 396h-2z" />
    <glyph glyph-name="uni01CD" unicode="&#x1cd;" horiz-adv-x="585" 
d="M307 737h-27l-124 131h70l68 -73l69 73h70zM490 0l-49 156h-296l-49 -156h-92l231 690h117l230 -690h-92zM167 227h251l-124 396h-2z" />
    <glyph glyph-name="Acircumflex" unicode="&#xc2;" horiz-adv-x="585" 
d="M294 812l-68 -76h-70l124 132h27l125 -132h-69zM490 0l-49 156h-296l-49 -156h-92l231 690h117l230 -690h-92zM167 227h251l-124 396h-2z" />
    <glyph glyph-name="Adieresis" unicode="&#xc4;" horiz-adv-x="585" 
d="M255 868v-98h-82v98h82zM415 868v-98h-82v98h82zM490 0l-49 156h-296l-49 -156h-92l231 690h117l230 -690h-92zM167 227h251l-124 396h-2z" />
    <glyph glyph-name="Agrave" unicode="&#xc0;" horiz-adv-x="585" 
d="M330 750h-72l-139 118h105zM490 0l-49 156h-296l-49 -156h-92l231 690h117l230 -690h-92zM167 227h251l-124 396h-2z" />
    <glyph glyph-name="Amacron" unicode="&#x100;" horiz-adv-x="585" 
d="M427 836v-54h-264v54h264zM490 0l-49 156h-296l-49 -156h-92l231 690h117l230 -690h-92zM167 227h251l-124 396h-2z" />
    <glyph glyph-name="Aogonek" unicode="&#x104;" horiz-adv-x="585" 
d="M613 -135l45 -30c-21 -32 -52 -55 -98 -55c-60 0 -101 38 -101 99c0 47 26 90 72 121h-41l-49 156h-296l-49 -156h-92l231 690h117l230 -690c-46 -37 -71 -71 -71 -111c0 -39 22 -57 48 -56c18 1 40 11 54 32zM167 227h251l-124 396h-2z" />
    <glyph glyph-name="Aring" unicode="&#xc5;" horiz-adv-x="585" 
d="M490 0l-49 156h-296l-49 -156h-92l224 667c-22 19 -35 47 -35 78c0 55 44 100 101 100c55 0 101 -44 101 -100c0 -31 -14 -59 -36 -78l223 -667h-92zM294 799c-33 0 -54 -22 -54 -55c0 -32 23 -54 54 -54c30 0 55 23 55 54s-23 55 -55 55zM167 227h251l-124 396h-2z" />
    <glyph glyph-name="Atilde" unicode="&#xc3;" horiz-adv-x="585" 
d="M217 818c-33 0 -46 -30 -46 -65h-50c0 69 27 115 92 115c82 0 100 -74 154 -74c34 0 47 30 47 73h53c0 -81 -38 -121 -98 -121c-78 0 -99 72 -152 72zM490 0l-49 156h-296l-49 -156h-92l231 690h117l230 -690h-92zM167 227h251l-124 396h-2z" />
    <glyph glyph-name="AE" unicode="&#xc6;" horiz-adv-x="873" 
d="M821 614h-365v-231h323v-76h-323v-228h365v-79h-450v150h-218l-55 -150h-94l262 690h555v-76zM182 227h189v388h-47z" />
    <glyph glyph-name="B" unicode="B" horiz-adv-x="644" 
d="M94 0v690h260c134 0 214 -71 214 -184c0 -86 -64 -135 -104 -144v-4c72 -5 138 -73 138 -169c0 -118 -85 -189 -210 -189h-298zM179 389h165c72 0 137 41 137 116c0 76 -48 109 -129 109h-173v-225zM179 79h203c93 0 134 46 134 118c0 75 -63 118 -134 118h-203v-236z
" />
    <glyph glyph-name="C" unicode="C" horiz-adv-x="671" 
d="M356 -10c-193 0 -314 139 -314 355c0 217 122 356 313 356c135 0 275 -92 279 -260h-79c-13 113 -88 181 -200 181c-140 0 -229 -105 -229 -273c0 -171 89 -280 231 -280c101 0 189 75 198 182h79c-6 -167 -144 -261 -278 -261z" />
    <glyph glyph-name="Cacute" unicode="&#x106;" horiz-adv-x="671" 
d="M304 751l108 117h104l-147 -117h-65zM356 -10c-193 0 -314 139 -314 355c0 217 122 356 313 356c135 0 275 -92 279 -260h-79c-13 113 -88 181 -200 181c-140 0 -229 -105 -229 -273c0 -171 89 -280 231 -280c101 0 189 75 198 182h79c-6 -167 -144 -261 -278 -261z" />
    <glyph glyph-name="Ccaron" unicode="&#x10c;" horiz-adv-x="671" 
d="M323 737l-124 131h70l68 -73l69 73h70l-126 -131h-27zM356 -10c-193 0 -314 139 -314 355c0 217 122 356 313 356c135 0 275 -92 279 -260h-79c-13 113 -88 181 -200 181c-140 0 -229 -105 -229 -273c0 -171 89 -280 231 -280c101 0 189 75 198 182h79
c-6 -167 -144 -261 -278 -261z" />
    <glyph glyph-name="Ccedilla" unicode="&#xc7;" horiz-adv-x="671" 
d="M357 69c101 0 189 75 198 182h79c-5 -151 -118 -242 -239 -258l-35 -55c71 -20 93 -50 93 -93c0 -59 -47 -89 -95 -89c-44 0 -77 28 -91 62l45 23c9 -24 20 -36 52 -36c15 0 36 9 36 36c1 23 -6 43 -43 55l-59 19l40 75c-183 9 -296 145 -296 355c0 217 122 356 313 356
c135 0 275 -92 279 -260h-79c-13 113 -88 181 -200 181c-140 0 -229 -105 -229 -273c0 -171 89 -280 231 -280z" />
    <glyph glyph-name="Cdotaccent" unicode="&#x10a;" horiz-adv-x="671" 
d="M298 773v95h78v-95h-78zM356 -10c-193 0 -314 139 -314 355c0 217 122 356 313 356c135 0 275 -92 279 -260h-79c-13 113 -88 181 -200 181c-140 0 -229 -105 -229 -273c0 -171 89 -280 231 -280c101 0 189 75 198 182h79c-6 -167 -144 -261 -278 -261z" />
    <glyph glyph-name="D" unicode="D" horiz-adv-x="666" 
d="M94 0v690h181c225 0 349 -123 349 -350c0 -218 -127 -340 -350 -340h-180zM180 79h82c186 0 275 86 275 266c0 179 -86 267 -264 267h-93v-533z" />
    <glyph glyph-name="Eth" unicode="&#xd0;" horiz-adv-x="654" 
d="M83 0v316h-57v64h57v310h180c226 0 350 -123 350 -350c0 -218 -127 -340 -351 -340h-179zM168 78h82c159 0 277 80 277 267c0 175 -86 268 -266 268h-93v-233h176v-64h-176v-238z" />
    <glyph glyph-name="Dcaron" unicode="&#x10e;" horiz-adv-x="666" 
d="M330 737l-124 131h70l68 -73l69 73h70l-126 -131h-27zM94 0v690h181c225 0 349 -123 349 -350c0 -218 -127 -340 -350 -340h-180zM180 79h82c186 0 275 86 275 266c0 179 -86 267 -264 267h-93v-533z" />
    <glyph glyph-name="Dcroat" unicode="&#x110;" horiz-adv-x="654" 
d="M83 0v316h-57v64h57v310h180c226 0 350 -123 350 -350c0 -218 -127 -340 -351 -340h-179zM168 78h82c159 0 277 80 277 267c0 175 -86 268 -266 268h-93v-233h176v-64h-176v-238z" />
    <glyph glyph-name="E" unicode="E" horiz-adv-x="595" 
d="M94 0v690h449v-76h-363v-231h321v-76h-321v-231h363v-76h-449z" />
    <glyph glyph-name="Eacute" unicode="&#xc9;" horiz-adv-x="595" 
d="M287 751l108 117h104l-147 -117h-65zM94 0v690h449v-76h-363v-231h321v-76h-321v-231h363v-76h-449z" />
    <glyph glyph-name="Ecaron" unicode="&#x11a;" horiz-adv-x="595" 
d="M305 737l-124 131h70l68 -73l69 73h70l-126 -131h-27zM94 0v690h449v-76h-363v-231h321v-76h-321v-231h363v-76h-449z" />
    <glyph glyph-name="Ecircumflex" unicode="&#xca;" horiz-adv-x="595" 
d="M181 736l124 132h27l125 -132h-69l-69 76l-68 -76h-70zM94 0v690h449v-76h-363v-231h321v-76h-321v-231h363v-76h-449z" />
    <glyph glyph-name="Edieresis" unicode="&#xcb;" horiz-adv-x="595" 
d="M198 770v98h82v-98h-82zM358 770v98h82v-98h-82zM94 0v690h449v-76h-363v-231h321v-76h-321v-231h363v-76h-449z" />
    <glyph glyph-name="Edotaccent" unicode="&#x116;" horiz-adv-x="595" 
d="M280 773v95h78v-95h-78zM94 0v690h449v-76h-363v-231h321v-76h-321v-231h363v-76h-449z" />
    <glyph glyph-name="Egrave" unicode="&#xc8;" horiz-adv-x="595" 
d="M283 750l-139 118h105l106 -118h-72zM94 0v690h449v-76h-363v-231h321v-76h-321v-231h363v-76h-449z" />
    <glyph glyph-name="Emacron" unicode="&#x112;" horiz-adv-x="595" 
d="M188 782v54h264v-54h-264zM94 0v690h449v-76h-363v-231h321v-76h-321v-231h363v-76h-449z" />
    <glyph glyph-name="Eogonek" unicode="&#x118;" horiz-adv-x="595" 
d="M574 -135l45 -30c-21 -32 -52 -55 -98 -55c-60 0 -101 38 -101 99c0 47 26 90 72 121h-398v690h449v-76h-363v-231h321v-76h-321v-231h363v-76c-46 -37 -71 -71 -71 -111c0 -39 22 -57 48 -56c18 1 40 11 54 32z" />
    <glyph glyph-name="uni1EBC" unicode="&#x1ebc;" horiz-adv-x="595" 
d="M146 753c0 69 27 115 92 115c82 0 100 -74 154 -74c34 0 47 30 47 73h53c0 -81 -38 -121 -98 -121c-78 0 -99 72 -152 72c-33 0 -46 -30 -46 -65h-50zM94 0v690h449v-76h-363v-231h321v-76h-321v-231h363v-76h-449z" />
    <glyph glyph-name="F" unicode="F" horiz-adv-x="559" 
d="M94 0v690h450v-76h-364v-231h321v-76h-321v-307h-86z" />
    <glyph glyph-name="G" unicode="G" horiz-adv-x="689" 
d="M42 347c0 191 102 354 313 354c167 0 292 -103 292 -262h-83c-6 123 -94 183 -210 183c-160 0 -227 -127 -227 -275s67 -275 227 -275c118 0 212 59 212 182h-207v70h288v-70c0 -159 -125 -261 -293 -261c-210 0 -312 162 -312 354z" />
    <glyph glyph-name="Gbreve" unicode="&#x11e;" horiz-adv-x="689" 
d="M355 736c-83 0 -150 47 -150 132h65c0 -47 38 -77 85 -77c46 0 84 31 84 77h65c0 -85 -66 -132 -149 -132zM42 347c0 191 102 354 313 354c167 0 292 -103 292 -262h-83c-6 123 -94 183 -210 183c-160 0 -227 -127 -227 -275s67 -275 227 -275c118 0 212 59 212 182h-207
v70h288v-70c0 -159 -125 -261 -293 -261c-210 0 -312 162 -312 354z" />
    <glyph glyph-name="Gcommaaccent" unicode="&#x122;" horiz-adv-x="689" 
d="M42 347c0 191 102 354 313 354c167 0 292 -103 292 -262h-83c-6 123 -94 183 -210 183c-160 0 -227 -127 -227 -275s67 -275 227 -275c118 0 212 59 212 182h-207v70h288v-70c0 -159 -125 -261 -293 -261c-210 0 -312 162 -312 354zM253 -217l60 148h101l-110 -148h-51z
" />
    <glyph glyph-name="Gdotaccent" unicode="&#x120;" horiz-adv-x="689" 
d="M316 773v95h78v-95h-78zM42 347c0 191 102 354 313 354c167 0 292 -103 292 -262h-83c-6 123 -94 183 -210 183c-160 0 -227 -127 -227 -275s67 -275 227 -275c118 0 212 59 212 182h-207v70h288v-70c0 -159 -125 -261 -293 -261c-210 0 -312 162 -312 354z" />
    <glyph glyph-name="H" unicode="H" horiz-adv-x="699" 
d="M94 0v690h86v-307h340v307h86v-690h-86v307h-340v-307h-86z" />
    <glyph glyph-name="Hbar" unicode="&#x126;" horiz-adv-x="699" 
d="M656 563v-38h-50v-525h-86v307h-340v-307h-86v525h-50v38h50v127h86v-127h340v127h86v-127h50zM520 383v142h-340v-142h340z" />
    <glyph glyph-name="I" unicode="I" horiz-adv-x="273" 
d="M94 0v690h86v-690h-86z" />
    <glyph glyph-name="Iacute" unicode="&#xcd;" horiz-adv-x="273" 
d="M105 751l108 117h104l-147 -117h-65zM94 0v690h86v-690h-86z" />
    <glyph glyph-name="uni01CF" unicode="&#x1cf;" horiz-adv-x="273" 
d="M123 737l-124 131h70l68 -73l69 73h70l-126 -131h-27zM94 0v690h86v-690h-86z" />
    <glyph glyph-name="Icircumflex" unicode="&#xce;" horiz-adv-x="273" 
d="M-1 736l124 132h27l125 -132h-69l-69 76l-68 -76h-70zM94 0v690h86v-690h-86z" />
    <glyph glyph-name="Idieresis" unicode="&#xcf;" horiz-adv-x="273" 
d="M16 770v98h82v-98h-82zM176 770v98h82v-98h-82zM94 0v690h86v-690h-86z" />
    <glyph glyph-name="Idotaccent" unicode="&#x130;" horiz-adv-x="273" 
d="M98 773v95h78v-95h-78zM94 0v690h86v-690h-86z" />
    <glyph glyph-name="Igrave" unicode="&#xcc;" horiz-adv-x="273" 
d="M101 750l-139 118h105l106 -118h-72zM94 0v690h86v-690h-86z" />
    <glyph glyph-name="Imacron" unicode="&#x12a;" horiz-adv-x="273" 
d="M6 782v54h264v-54h-264zM94 0v690h86v-690h-86z" />
    <glyph glyph-name="Iogonek" unicode="&#x12e;" horiz-adv-x="273" 
d="M210 -135l45 -30c-21 -32 -52 -55 -98 -55c-60 0 -101 38 -101 99c0 47 26 90 72 121h-34v690h86v-690h-1c-46 -37 -71 -71 -71 -111c0 -39 22 -57 48 -56c18 1 40 11 54 32z" />
    <glyph glyph-name="Itilde" unicode="&#x128;" horiz-adv-x="273" 
d="M-36 753c0 69 27 115 92 115c82 0 100 -74 154 -74c34 0 47 30 47 73h53c0 -81 -38 -121 -98 -121c-78 0 -99 72 -152 72c-33 0 -46 -30 -46 -65h-50zM94 0v690h86v-690h-86z" />
    <glyph glyph-name="J" unicode="J" horiz-adv-x="367" 
d="M92 -10c-25 0 -54 3 -78 10v80c34 -11 56 -14 75 -14c98 0 123 80 123 171v453h85v-456c0 -147 -60 -244 -205 -244z" />
    <glyph glyph-name="K" unicode="K" horiz-adv-x="619" 
d="M504 0l-257 330l-67 -72v-258h-86v690h86v-326l294 326h107l-280 -301l314 -389h-111z" />
    <glyph glyph-name="Kcommaaccent" unicode="&#x136;" horiz-adv-x="619" 
d="M301 389l314 -389h-111l-257 330l-67 -72v-258h-86v690h86v-326l294 326h107zM229 -217l60 148h101l-110 -148h-51z" />
    <glyph glyph-name="L" unicode="L" horiz-adv-x="484" 
d="M94 0v690h86v-614h295v-76h-381z" />
    <glyph glyph-name="Lacute" unicode="&#x139;" horiz-adv-x="484" 
d="M113 751l108 117h104l-147 -117h-65zM94 0v690h86v-614h295v-76h-381z" />
    <glyph glyph-name="Lcaron" unicode="&#x13d;" horiz-adv-x="484" 
d="M180 690v-614h295v-76h-381v690h86zM366 690h110v-108l-62 -149h-49l42 149h-41v108z" />
    <glyph glyph-name="Lcommaaccent" unicode="&#x13b;" horiz-adv-x="484" 
d="M94 0v690h86v-614h295v-76h-381zM144 -217l60 148h101l-110 -148h-51z" />
    <glyph glyph-name="Lslash" unicode="&#x141;" horiz-adv-x="484" 
d="M180 76h295v-76h-381v244l-63 -49v79l63 50v366h86v-298l131 105v-82l-131 -103v-236z" />
    <glyph glyph-name="M" unicode="M" horiz-adv-x="851" 
d="M94 0v690h138l193 -607l193 607h139v-690h-86v607h-4l-192 -607h-100l-192 607h-4v-607h-85z" />
    <glyph glyph-name="N" unicode="N" horiz-adv-x="730" 
d="M94 0v690h116l336 -586h5v586h85v-690h-118l-335 591h-3v-591h-86z" />
    <glyph glyph-name="Nacute" unicode="&#x143;" horiz-adv-x="730" 
d="M333 751l108 117h104l-147 -117h-65zM94 0v690h116l336 -586h5v586h85v-690h-118l-335 591h-3v-591h-86z" />
    <glyph glyph-name="Ncaron" unicode="&#x147;" horiz-adv-x="730" 
d="M351 737l-124 131h70l68 -73l69 73h70l-126 -131h-27zM94 0v690h116l336 -586h5v586h85v-690h-118l-335 591h-3v-591h-86z" />
    <glyph glyph-name="Ncommaaccent" unicode="&#x145;" horiz-adv-x="730" 
d="M94 0v690h116l336 -586h5v586h85v-690h-118l-335 591h-3v-591h-86zM254 -217l60 148h101l-110 -148h-51z" />
    <glyph glyph-name="Eng" unicode="&#x14a;" horiz-adv-x="730" 
d="M551 690h85v-690c0 -68 1 -141 -130 -141h-53v60h35c70 0 67 50 67 81h-37l-335 591h-3v-591h-86v690h116l336 -586h5v586z" />
    <glyph glyph-name="Ntilde" unicode="&#xd1;" horiz-adv-x="730" 
d="M192 753c0 69 27 115 92 115c82 0 100 -74 154 -74c34 0 47 30 47 73h53c0 -81 -38 -121 -98 -121c-78 0 -99 72 -152 72c-33 0 -46 -30 -46 -65h-50zM94 0v690h116l336 -586h5v586h85v-690h-118l-335 591h-3v-591h-86z" />
    <glyph glyph-name="O" unicode="O" horiz-adv-x="711" 
d="M356 -10c-194 0 -314 138 -314 355s120 355 314 355c192 0 313 -138 313 -355s-121 -355 -313 -355zM356 68c139 0 227 105 227 277c0 174 -88 277 -227 277c-140 0 -228 -103 -228 -277c0 -172 88 -277 228 -277z" />
    <glyph glyph-name="Oacute" unicode="&#xd3;" horiz-adv-x="711" 
d="M323 751l108 117h104l-147 -117h-65zM356 -10c-194 0 -314 138 -314 355s120 355 314 355c192 0 313 -138 313 -355s-121 -355 -313 -355zM356 68c139 0 227 105 227 277c0 174 -88 277 -227 277c-140 0 -228 -103 -228 -277c0 -172 88 -277 228 -277z" />
    <glyph glyph-name="uni01D1" unicode="&#x1d1;" horiz-adv-x="711" 
d="M342 737l-124 131h70l68 -73l69 73h70l-126 -131h-27zM356 -10c-194 0 -314 138 -314 355s120 355 314 355c192 0 313 -138 313 -355s-121 -355 -313 -355zM356 68c139 0 227 105 227 277c0 174 -88 277 -227 277c-140 0 -228 -103 -228 -277c0 -172 88 -277 228 -277z
" />
    <glyph glyph-name="Ocircumflex" unicode="&#xd4;" horiz-adv-x="711" 
d="M218 736l124 132h27l125 -132h-69l-69 76l-68 -76h-70zM356 -10c-194 0 -314 138 -314 355s120 355 314 355c192 0 313 -138 313 -355s-121 -355 -313 -355zM356 68c139 0 227 105 227 277c0 174 -88 277 -227 277c-140 0 -228 -103 -228 -277c0 -172 88 -277 228 -277z
" />
    <glyph glyph-name="Odieresis" unicode="&#xd6;" horiz-adv-x="711" 
d="M234 770v98h82v-98h-82zM394 770v98h82v-98h-82zM356 -10c-194 0 -314 138 -314 355s120 355 314 355c192 0 313 -138 313 -355s-121 -355 -313 -355zM356 68c139 0 227 105 227 277c0 174 -88 277 -227 277c-140 0 -228 -103 -228 -277c0 -172 88 -277 228 -277z" />
    <glyph glyph-name="Ograve" unicode="&#xd2;" horiz-adv-x="711" 
d="M319 750l-139 118h105l106 -118h-72zM356 -10c-194 0 -314 138 -314 355s120 355 314 355c192 0 313 -138 313 -355s-121 -355 -313 -355zM356 68c139 0 227 105 227 277c0 174 -88 277 -227 277c-140 0 -228 -103 -228 -277c0 -172 88 -277 228 -277z" />
    <glyph glyph-name="Ohungarumlaut" unicode="&#x150;" horiz-adv-x="711" 
d="M223 754l104 114h97l-128 -114h-73zM390 754l103 114h102l-133 -114h-72zM356 -10c-194 0 -314 138 -314 355s120 355 314 355c192 0 313 -138 313 -355s-121 -355 -313 -355zM356 68c139 0 227 105 227 277c0 174 -88 277 -227 277c-140 0 -228 -103 -228 -277
c0 -172 88 -277 228 -277z" />
    <glyph glyph-name="Omacron" unicode="&#x14c;" horiz-adv-x="711" 
d="M224 782v54h264v-54h-264zM356 -10c-194 0 -314 138 -314 355s120 355 314 355c192 0 313 -138 313 -355s-121 -355 -313 -355zM356 68c139 0 227 105 227 277c0 174 -88 277 -227 277c-140 0 -228 -103 -228 -277c0 -172 88 -277 228 -277z" />
    <glyph glyph-name="Oslash" unicode="&#xd8;" horiz-adv-x="711" 
d="M672 618l-57 -57c35 -57 54 -130 54 -216c0 -217 -121 -355 -313 -355c-93 0 -169 32 -223 89l-51 -51l-43 44l56 56c-34 58 -53 131 -53 217c0 217 120 355 314 355c92 0 168 -32 222 -89l50 50zM128 345c0 -60 10 -112 30 -154l361 361c-39 46 -95 70 -163 70
c-140 0 -228 -103 -228 -277zM583 345c0 60 -10 112 -30 154l-361 -361c40 -45 96 -70 164 -70c139 0 227 105 227 277z" />
    <glyph glyph-name="Oslashacute" unicode="&#x1fe;" horiz-adv-x="711" 
d="M535 868l-147 -117h-65l108 117h104zM672 618l-57 -57c35 -57 54 -130 54 -216c0 -217 -121 -355 -313 -355c-93 0 -169 32 -223 89l-51 -51l-43 44l56 56c-34 58 -53 131 -53 217c0 217 120 355 314 355c92 0 168 -32 222 -89l50 50zM128 345c0 -60 10 -112 30 -154
l361 361c-39 46 -95 70 -163 70c-140 0 -228 -103 -228 -277zM583 345c0 60 -10 112 -30 154l-361 -361c40 -45 96 -70 164 -70c139 0 227 105 227 277z" />
    <glyph glyph-name="Otilde" unicode="&#xd5;" horiz-adv-x="711" 
d="M183 753c0 69 27 115 92 115c82 0 100 -74 154 -74c34 0 47 30 47 73h53c0 -81 -38 -121 -98 -121c-78 0 -99 72 -152 72c-33 0 -46 -30 -46 -65h-50zM356 -10c-194 0 -314 138 -314 355s120 355 314 355c192 0 313 -138 313 -355s-121 -355 -313 -355zM356 68
c139 0 227 105 227 277c0 174 -88 277 -227 277c-140 0 -228 -103 -228 -277c0 -172 88 -277 228 -277z" />
    <glyph glyph-name="OE" unicode="&#x152;" horiz-adv-x="1096" 
d="M1044 614h-363v-231h321v-76h-321v-231h363v-76h-449v99c-54 -70 -137 -109 -239 -109c-194 0 -314 138 -314 355s120 355 314 355c102 0 185 -39 239 -109v99h449v-76zM356 68c139 0 227 105 227 277c0 174 -88 277 -227 277c-140 0 -228 -103 -228 -277
c0 -172 88 -277 228 -277z" />
    <glyph glyph-name="P" unicode="P" horiz-adv-x="637" 
d="M94 0v690h287c140 0 229 -78 229 -215c0 -132 -83 -208 -229 -208h-202v-267h-85zM179 342h202c96 0 143 43 143 132c0 87 -47 140 -143 140h-202v-272z" />
    <glyph glyph-name="Thorn" unicode="&#xde;" horiz-adv-x="584" 
d="M94 0v690h89v-97h151c135 0 223 -71 223 -193c0 -124 -88 -191 -223 -191h-151v-209h-89zM183 285h142c94 0 143 39 143 114c0 73 -49 117 -143 117h-142v-231z" />
    <glyph glyph-name="Q" unicode="Q" horiz-adv-x="711" 
d="M582 83c21 -12 49 -19 89 -19v-64c-70 -1 -113 15 -143 37c-47 -30 -105 -47 -172 -47c-194 0 -314 138 -314 355s120 355 314 355c192 0 313 -138 313 -355c0 -110 -31 -200 -87 -262zM128 345c0 -172 88 -277 228 -277c46 0 86 11 120 33c-32 55 -54 112 -154 112v64
c144 0 166 -72 202 -133c38 48 59 116 59 201c0 174 -88 277 -227 277c-140 0 -228 -103 -228 -277z" />
    <glyph glyph-name="R" unicode="R" horiz-adv-x="647" 
d="M612 -1h-96l-135 268h-202v-267h-85v690h287c140 0 229 -78 229 -215c0 -104 -51 -173 -144 -198zM179 614v-272h202c96 0 143 43 143 132c0 87 -47 140 -143 140h-202z" />
    <glyph glyph-name="Racute" unicode="&#x154;" horiz-adv-x="647" 
d="M491 868l-147 -117h-65l108 117h104zM612 -1h-96l-135 268h-202v-267h-85v690h287c140 0 229 -78 229 -215c0 -104 -51 -173 -144 -198zM179 614v-272h202c96 0 143 43 143 132c0 87 -47 140 -143 140h-202z" />
    <glyph glyph-name="Rcaron" unicode="&#x158;" horiz-adv-x="647" 
d="M324 737h-27l-124 131h70l68 -73l69 73h70zM612 -1h-96l-135 268h-202v-267h-85v690h287c140 0 229 -78 229 -215c0 -104 -51 -173 -144 -198zM179 614v-272h202c96 0 143 43 143 132c0 87 -47 140 -143 140h-202z" />
    <glyph glyph-name="Rcommaaccent" unicode="&#x156;" horiz-adv-x="647" 
d="M612 -1h-96l-135 268h-202v-267h-85v690h287c140 0 229 -78 229 -215c0 -104 -51 -173 -144 -198zM179 614v-272h202c96 0 143 43 143 132c0 87 -47 140 -143 140h-202zM218 -217l60 148h101l-110 -148h-51z" />
    <glyph glyph-name="S" unicode="S" horiz-adv-x="541" 
d="M283 -8c-116 0 -257 57 -257 239h89c0 -117 79 -162 170 -162c78 0 134 40 134 110c0 82 -83 113 -166 146c-93 36 -201 76 -201 198c0 108 83 177 210 177c119 0 223 -57 223 -196h-86c1 87 -57 122 -137 122c-76 0 -124 -37 -124 -96c0 -70 78 -100 158 -133
c94 -38 210 -81 210 -208c0 -118 -91 -197 -223 -197z" />
    <glyph glyph-name="Sacute" unicode="&#x15a;" horiz-adv-x="541" 
d="M230 751l108 117h104l-147 -117h-65zM283 -8c-116 0 -257 57 -257 239h89c0 -117 79 -162 170 -162c78 0 134 40 134 110c0 82 -83 113 -166 146c-93 36 -201 76 -201 198c0 108 83 177 210 177c119 0 223 -57 223 -196h-86c1 87 -57 122 -137 122
c-76 0 -124 -37 -124 -96c0 -70 78 -100 158 -133c94 -38 210 -81 210 -208c0 -118 -91 -197 -223 -197z" />
    <glyph glyph-name="Scaron" unicode="&#x160;" horiz-adv-x="541" 
d="M248 737l-124 131h70l68 -73l69 73h70l-126 -131h-27zM283 -8c-116 0 -257 57 -257 239h89c0 -117 79 -162 170 -162c78 0 134 40 134 110c0 82 -83 113 -166 146c-93 36 -201 76 -201 198c0 108 83 177 210 177c119 0 223 -57 223 -196h-86c1 87 -57 122 -137 122
c-76 0 -124 -37 -124 -96c0 -70 78 -100 158 -133c94 -38 210 -81 210 -208c0 -118 -91 -197 -223 -197z" />
    <glyph glyph-name="Scedilla" unicode="&#x15e;" horiz-adv-x="541" 
d="M506 189c0 -117 -90 -196 -221 -197l-35 -55c71 -20 93 -50 93 -93c0 -59 -47 -89 -95 -89c-44 0 -77 28 -91 62l45 23c9 -24 20 -36 52 -36c15 0 36 9 36 36c1 23 -6 43 -43 55l-59 19l43 82c-102 15 -205 80 -205 235h89c0 -117 79 -162 170 -162c78 0 134 40 134 110
c0 82 -83 113 -166 146c-93 36 -201 76 -201 198c0 108 83 177 210 177c119 0 223 -57 223 -196h-86c1 87 -57 122 -137 122c-76 0 -124 -37 -124 -96c0 -70 78 -100 158 -133c94 -38 210 -81 210 -208z" />
    <glyph glyph-name="Scommaaccent" unicode="&#x218;" horiz-adv-x="541" 
d="M283 -8c-116 0 -257 57 -257 239h89c0 -117 79 -162 170 -162c78 0 134 40 134 110c0 82 -83 113 -166 146c-93 36 -201 76 -201 198c0 108 83 177 210 177c119 0 223 -57 223 -196h-86c1 87 -57 122 -137 122c-76 0 -124 -37 -124 -96c0 -70 78 -100 158 -133
c94 -38 210 -81 210 -208c0 -118 -91 -197 -223 -197zM147 -218l60 148h101l-110 -148h-51z" />
    <glyph glyph-name="T" unicode="T" horiz-adv-x="565" 
d="M240 0v615h-231v75h547v-75h-230v-615h-86z" />
    <glyph glyph-name="Tbar" unicode="&#x166;" horiz-adv-x="565" 
d="M556 615h-230v-248h113v-44h-113v-323h-86v323h-114v44h114v248h-231v75h547v-75z" />
    <glyph glyph-name="Tcaron" unicode="&#x164;" horiz-adv-x="565" 
d="M268 737l-124 131h70l68 -73l69 73h70l-126 -131h-27zM240 0v615h-231v75h547v-75h-230v-615h-86z" />
    <glyph glyph-name="uni0162" unicode="&#x162;" horiz-adv-x="565" 
d="M326 0h-12l-40 -62c71 -20 93 -50 93 -93c0 -59 -47 -89 -95 -89c-44 0 -77 28 -91 62l45 23c9 -24 20 -36 52 -36c15 0 36 9 36 36c1 23 -6 43 -43 55l-59 19l45 85h-17v615h-231v75h547v-75h-230v-615z" />
    <glyph glyph-name="uni021A" unicode="&#x21a;" horiz-adv-x="565" 
d="M240 0v615h-231v75h547v-75h-230v-615h-86zM171 -217l60 148h101l-110 -148h-51z" />
    <glyph glyph-name="U" unicode="U" horiz-adv-x="657" 
d="M329 -10c-155 0 -245 94 -245 253v447h85v-450c0 -107 60 -172 160 -172c99 0 159 65 159 172v450h85v-442c0 -162 -91 -258 -244 -258z" />
    <glyph glyph-name="Uacute" unicode="&#xda;" horiz-adv-x="657" 
d="M296 751l108 117h104l-147 -117h-65zM329 -10c-155 0 -245 94 -245 253v447h85v-450c0 -107 60 -172 160 -172c99 0 159 65 159 172v450h85v-442c0 -162 -91 -258 -244 -258z" />
    <glyph glyph-name="uni01D3" unicode="&#x1d3;" horiz-adv-x="657" 
d="M314 737l-124 131h70l68 -73l69 73h70l-126 -131h-27zM329 -10c-155 0 -245 94 -245 253v447h85v-450c0 -107 60 -172 160 -172c99 0 159 65 159 172v450h85v-442c0 -162 -91 -258 -244 -258z" />
    <glyph glyph-name="Ucircumflex" unicode="&#xdb;" horiz-adv-x="657" 
d="M191 736l124 132h27l125 -132h-69l-69 76l-68 -76h-70zM329 -10c-155 0 -245 94 -245 253v447h85v-450c0 -107 60 -172 160 -172c99 0 159 65 159 172v450h85v-442c0 -162 -91 -258 -244 -258z" />
    <glyph glyph-name="Udieresis" unicode="&#xdc;" horiz-adv-x="657" 
d="M207 770v98h82v-98h-82zM367 770v98h82v-98h-82zM329 -10c-155 0 -245 94 -245 253v447h85v-450c0 -107 60 -172 160 -172c99 0 159 65 159 172v450h85v-442c0 -162 -91 -258 -244 -258z" />
    <glyph glyph-name="uni01D7" unicode="&#x1d7;" horiz-adv-x="657" 
d="M296 929l108 117h104l-147 -117h-65zM207 770v98h82v-98h-82zM367 770v98h82v-98h-82zM329 -10c-155 0 -245 94 -245 253v447h85v-450c0 -107 60 -172 160 -172c99 0 159 65 159 172v450h85v-442c0 -162 -91 -258 -244 -258z" />
    <glyph glyph-name="uni01D9" unicode="&#x1d9;" horiz-adv-x="657" 
d="M314 915l-124 131h70l68 -73l69 73h70l-126 -131h-27zM207 770v98h82v-98h-82zM367 770v98h82v-98h-82zM329 -10c-155 0 -245 94 -245 253v447h85v-450c0 -107 60 -172 160 -172c99 0 159 65 159 172v450h85v-442c0 -162 -91 -258 -244 -258z" />
    <glyph glyph-name="uni01DB" unicode="&#x1db;" horiz-adv-x="657" 
d="M292 928l-139 118h105l106 -118h-72zM207 770v98h82v-98h-82zM367 770v98h82v-98h-82zM329 -10c-155 0 -245 94 -245 253v447h85v-450c0 -107 60 -172 160 -172c99 0 159 65 159 172v450h85v-442c0 -162 -91 -258 -244 -258z" />
    <glyph glyph-name="uni01D5" unicode="&#x1d5;" horiz-adv-x="657" 
d="M197 960v54h264v-54h-264zM207 770v98h82v-98h-82zM367 770v98h82v-98h-82zM329 -10c-155 0 -245 94 -245 253v447h85v-450c0 -107 60 -172 160 -172c99 0 159 65 159 172v450h85v-442c0 -162 -91 -258 -244 -258z" />
    <glyph glyph-name="Ugrave" unicode="&#xd9;" horiz-adv-x="657" 
d="M292 750l-139 118h105l106 -118h-72zM329 -10c-155 0 -245 94 -245 253v447h85v-450c0 -107 60 -172 160 -172c99 0 159 65 159 172v450h85v-442c0 -162 -91 -258 -244 -258z" />
    <glyph glyph-name="Uhungarumlaut" unicode="&#x170;" horiz-adv-x="657" 
d="M195 754l104 114h97l-128 -114h-73zM362 754l103 114h102l-133 -114h-72zM329 -10c-155 0 -245 94 -245 253v447h85v-450c0 -107 60 -172 160 -172c99 0 159 65 159 172v450h85v-442c0 -162 -91 -258 -244 -258z" />
    <glyph glyph-name="Umacron" unicode="&#x16a;" horiz-adv-x="657" 
d="M197 782v54h264v-54h-264zM329 -10c-155 0 -245 94 -245 253v447h85v-450c0 -107 60 -172 160 -172c99 0 159 65 159 172v450h85v-442c0 -162 -91 -258 -244 -258z" />
    <glyph glyph-name="Uogonek" unicode="&#x172;" horiz-adv-x="657" 
d="M478 32c-39 -34 -60 -65 -60 -102c0 -39 22 -57 48 -56c18 1 40 11 54 32l45 -30c-21 -32 -52 -55 -98 -55c-60 0 -101 38 -101 99c0 27 9 53 25 76c-19 -4 -40 -6 -62 -6c-155 0 -245 94 -245 253v447h85v-450c0 -107 60 -172 160 -172c99 0 159 65 159 172v450h85v-442
c0 -99 -34 -173 -95 -216z" />
    <glyph glyph-name="Uring" unicode="&#x16e;" horiz-adv-x="657" 
d="M327 729c-55 0 -97 44 -97 99c0 54 43 97 97 97s98 -42 98 -97c0 -54 -43 -99 -98 -99zM327 775c29 0 53 22 53 52s-22 53 -53 53s-52 -21 -52 -53c0 -31 23 -52 52 -52zM329 -10c-155 0 -245 94 -245 253v447h85v-450c0 -107 60 -172 160 -172c99 0 159 65 159 172v450
h85v-442c0 -162 -91 -258 -244 -258z" />
    <glyph glyph-name="Utilde" unicode="&#x168;" horiz-adv-x="657" 
d="M155 753c0 69 27 115 92 115c82 0 100 -74 154 -74c34 0 47 30 47 73h53c0 -81 -38 -121 -98 -121c-78 0 -99 72 -152 72c-33 0 -46 -30 -46 -65h-50zM329 -10c-155 0 -245 94 -245 253v447h85v-450c0 -107 60 -172 160 -172c99 0 159 65 159 172v450h85v-442
c0 -162 -91 -258 -244 -258z" />
    <glyph glyph-name="V" unicode="V" horiz-adv-x="594" 
d="M496 690h90l-229 -690h-119l-230 690h89l200 -627z" />
    <glyph glyph-name="W" unicode="W" horiz-adv-x="900" 
d="M175 0l-166 690h88l136 -607l162 607h110l161 -607l136 607h89l-166 -690h-114l-162 610l-161 -610h-113z" />
    <glyph glyph-name="Wacute" unicode="&#x1e82;" horiz-adv-x="900" 
d="M418 751l108 117h104l-147 -117h-65zM175 0l-166 690h88l136 -607l162 607h110l161 -607l136 607h89l-166 -690h-114l-162 610l-161 -610h-113z" />
    <glyph glyph-name="Wcircumflex" unicode="&#x174;" horiz-adv-x="900" 
d="M313 736l124 132h27l125 -132h-69l-69 76l-68 -76h-70zM175 0l-166 690h88l136 -607l162 607h110l161 -607l136 607h89l-166 -690h-114l-162 610l-161 -610h-113z" />
    <glyph glyph-name="Wdieresis" unicode="&#x1e84;" horiz-adv-x="900" 
d="M330 770v98h82v-98h-82zM490 770v98h82v-98h-82zM175 0l-166 690h88l136 -607l162 607h110l161 -607l136 607h89l-166 -690h-114l-162 610l-161 -610h-113z" />
    <glyph glyph-name="Wgrave" unicode="&#x1e80;" horiz-adv-x="900" 
d="M414 750l-139 118h105l106 -118h-72zM175 0l-166 690h88l136 -607l162 607h110l161 -607l136 607h89l-166 -690h-114l-162 610l-161 -610h-113z" />
    <glyph glyph-name="X" unicode="X" horiz-adv-x="576" 
d="M7 0l228 345l-227 345h104l176 -280l176 280h104l-227 -345l228 -345h-104l-178 275l-176 -275h-104z" />
    <glyph glyph-name="Y" unicode="Y" horiz-adv-x="656" 
d="M284 0v270l-281 420h101l223 -343l225 343h100l-282 -420v-270h-86z" />
    <glyph glyph-name="Yacute" unicode="&#xdd;" horiz-adv-x="656" 
d="M295 751l108 117h104l-147 -117h-65zM284 0v270l-281 420h101l223 -343l225 343h100l-282 -420v-270h-86z" />
    <glyph glyph-name="Ycircumflex" unicode="&#x176;" horiz-adv-x="656" 
d="M190 736l124 132h27l125 -132h-69l-69 76l-68 -76h-70zM284 0v270l-281 420h101l223 -343l225 343h100l-282 -420v-270h-86z" />
    <glyph glyph-name="Ydieresis" unicode="&#x178;" horiz-adv-x="656" 
d="M207 770v98h82v-98h-82zM367 770v98h82v-98h-82zM284 0v270l-281 420h101l223 -343l225 343h100l-282 -420v-270h-86z" />
    <glyph glyph-name="Ygrave" unicode="&#x1ef2;" horiz-adv-x="656" 
d="M292 750l-139 118h105l106 -118h-72zM284 0v270l-281 420h101l223 -343l225 343h100l-282 -420v-270h-86z" />
    <glyph glyph-name="uni1EF8" unicode="&#x1ef8;" horiz-adv-x="656" 
d="M155 753c0 69 27 115 92 115c82 0 100 -74 154 -74c34 0 47 30 47 73h53c0 -81 -38 -121 -98 -121c-78 0 -99 72 -152 72c-33 0 -46 -30 -46 -65h-50zM284 0v270l-281 420h101l223 -343l225 343h100l-282 -420v-270h-86z" />
    <glyph glyph-name="Z" unicode="Z" horiz-adv-x="571" 
d="M554 690v-69l-431 -545h431v-76h-537v66l431 548h-409v76h515z" />
    <glyph glyph-name="Zacute" unicode="&#x179;" horiz-adv-x="571" 
d="M468 868l-147 -117h-65l108 117h104zM554 690v-69l-431 -545h431v-76h-537v66l431 548h-409v76h515z" />
    <glyph glyph-name="Zcaron" unicode="&#x17d;" horiz-adv-x="571" 
d="M301 737h-27l-124 131h70l68 -73l69 73h70zM554 690v-69l-431 -545h431v-76h-537v66l431 548h-409v76h515z" />
    <glyph glyph-name="Zdotaccent" unicode="&#x17b;" horiz-adv-x="571" 
d="M327 868v-95h-78v95h78zM554 690v-69l-431 -545h431v-76h-537v66l431 548h-409v76h515z" />
    <glyph glyph-name="a" unicode="a" horiz-adv-x="528" 
d="M211 -11c-96 0 -164 57 -164 147c0 70 43 116 106 145c66 30 151 37 237 32v41c0 80 -55 102 -122 102c-68 0 -136 -21 -136 -100h-77c0 122 110 166 208 166c110 0 203 -52 203 -174v-348h-76v72c-55 -66 -120 -83 -179 -83zM234 56c60 1 119 35 156 96v103
c-69 6 -145 -1 -196 -27c-37 -19 -62 -47 -62 -88c0 -53 41 -84 102 -84z" />
    <glyph glyph-name="aacute" unicode="&#xe1;" horiz-adv-x="528" 
d="M235 573l108 117h104l-147 -117h-65zM211 -11c-96 0 -164 57 -164 147c0 70 43 116 106 145c66 30 151 37 237 32v41c0 80 -55 102 -122 102c-68 0 -136 -21 -136 -100h-77c0 122 110 166 208 166c110 0 203 -52 203 -174v-348h-76v72c-55 -66 -120 -83 -179 -83zM234 56
c60 1 119 35 156 96v103c-69 6 -145 -1 -196 -27c-37 -19 -62 -47 -62 -88c0 -53 41 -84 102 -84z" />
    <glyph glyph-name="abreve" unicode="&#x103;" horiz-adv-x="528" 
d="M267 558c-83 0 -150 47 -150 132h65c0 -47 38 -77 85 -77c46 0 84 31 84 77h65c0 -85 -66 -132 -149 -132zM211 -11c-96 0 -164 57 -164 147c0 70 43 116 106 145c66 30 151 37 237 32v41c0 80 -55 102 -122 102c-68 0 -136 -21 -136 -100h-77c0 122 110 166 208 166
c110 0 203 -52 203 -174v-348h-76v72c-55 -66 -120 -83 -179 -83zM234 56c60 1 119 35 156 96v103c-69 6 -145 -1 -196 -27c-37 -19 -62 -47 -62 -88c0 -53 41 -84 102 -84z" />
    <glyph glyph-name="uni01CE" unicode="&#x1ce;" horiz-adv-x="528" 
d="M253 559l-124 131h70l68 -73l69 73h70l-126 -131h-27zM211 -11c-96 0 -164 57 -164 147c0 70 43 116 106 145c66 30 151 37 237 32v41c0 80 -55 102 -122 102c-68 0 -136 -21 -136 -100h-77c0 122 110 166 208 166c110 0 203 -52 203 -174v-348h-76v72
c-55 -66 -120 -83 -179 -83zM234 56c60 1 119 35 156 96v103c-69 6 -145 -1 -196 -27c-37 -19 -62 -47 -62 -88c0 -53 41 -84 102 -84z" />
    <glyph glyph-name="acircumflex" unicode="&#xe2;" horiz-adv-x="528" 
d="M129 558l124 132h27l125 -132h-69l-69 76l-68 -76h-70zM211 -11c-96 0 -164 57 -164 147c0 70 43 116 106 145c66 30 151 37 237 32v41c0 80 -55 102 -122 102c-68 0 -136 -21 -136 -100h-77c0 122 110 166 208 166c110 0 203 -52 203 -174v-348h-76v72
c-55 -66 -120 -83 -179 -83zM234 56c60 1 119 35 156 96v103c-69 6 -145 -1 -196 -27c-37 -19 -62 -47 -62 -88c0 -53 41 -84 102 -84z" />
    <glyph glyph-name="adieresis" unicode="&#xe4;" horiz-adv-x="528" 
d="M146 592v98h82v-98h-82zM306 592v98h82v-98h-82zM211 -11c-96 0 -164 57 -164 147c0 70 43 116 106 145c66 30 151 37 237 32v41c0 80 -55 102 -122 102c-68 0 -136 -21 -136 -100h-77c0 122 110 166 208 166c110 0 203 -52 203 -174v-348h-76v72
c-55 -66 -120 -83 -179 -83zM234 56c60 1 119 35 156 96v103c-69 6 -145 -1 -196 -27c-37 -19 -62 -47 -62 -88c0 -53 41 -84 102 -84z" />
    <glyph glyph-name="agrave" unicode="&#xe0;" horiz-adv-x="528" 
d="M231 572l-139 118h105l106 -118h-72zM211 -11c-96 0 -164 57 -164 147c0 70 43 116 106 145c66 30 151 37 237 32v41c0 80 -55 102 -122 102c-68 0 -136 -21 -136 -100h-77c0 122 110 166 208 166c110 0 203 -52 203 -174v-348h-76v72c-55 -66 -120 -83 -179 -83zM234 56
c60 1 119 35 156 96v103c-69 6 -145 -1 -196 -27c-37 -19 -62 -47 -62 -88c0 -53 41 -84 102 -84z" />
    <glyph glyph-name="amacron" unicode="&#x101;" horiz-adv-x="528" 
d="M136 604v54h264v-54h-264zM211 -11c-96 0 -164 57 -164 147c0 70 43 116 106 145c66 30 151 37 237 32v41c0 80 -55 102 -122 102c-68 0 -136 -21 -136 -100h-77c0 122 110 166 208 166c110 0 203 -52 203 -174v-348h-76v72c-55 -66 -120 -83 -179 -83zM234 56
c60 1 119 35 156 96v103c-69 6 -145 -1 -196 -27c-37 -19 -62 -47 -62 -88c0 -53 41 -84 102 -84z" />
    <glyph glyph-name="aogonek" unicode="&#x105;" horiz-adv-x="528" 
d="M497 -135l45 -30c-21 -32 -52 -55 -98 -55c-60 0 -101 38 -101 99c0 47 26 90 72 121h-25v72c-55 -66 -120 -83 -179 -83c-96 0 -164 57 -164 147c0 70 43 116 106 145c66 30 151 37 237 32v41c0 80 -55 102 -122 102c-68 0 -136 -21 -136 -100h-77
c0 122 110 166 208 166c110 0 203 -52 203 -174v-348c-46 -37 -71 -71 -71 -111c0 -39 22 -57 48 -56c18 1 40 11 54 32zM390 152v103c-69 6 -145 -1 -196 -27c-37 -19 -62 -47 -62 -88c0 -53 41 -84 102 -84c60 1 119 35 156 96z" />
    <glyph glyph-name="aring" unicode="&#xe5;" horiz-adv-x="528" 
d="M266 551c-55 0 -97 44 -97 99c0 54 43 97 97 97s98 -42 98 -97c0 -54 -43 -99 -98 -99zM266 597c29 0 53 22 53 52s-22 53 -53 53s-52 -21 -52 -53c0 -31 23 -52 52 -52zM211 -11c-96 0 -164 57 -164 147c0 70 43 116 106 145c66 30 151 37 237 32v41
c0 80 -55 102 -122 102c-68 0 -136 -21 -136 -100h-77c0 122 110 166 208 166c110 0 203 -52 203 -174v-348h-76v72c-55 -66 -120 -83 -179 -83zM234 56c60 1 119 35 156 96v103c-69 6 -145 -1 -196 -27c-37 -19 -62 -47 -62 -88c0 -53 41 -84 102 -84z" />
    <glyph glyph-name="atilde" unicode="&#xe3;" horiz-adv-x="528" 
d="M94 576c0 69 27 115 92 115c82 0 100 -74 154 -74c34 0 47 30 47 73h53c0 -81 -38 -121 -98 -121c-78 0 -99 72 -152 72c-33 0 -46 -30 -46 -65h-50zM211 -11c-96 0 -164 57 -164 147c0 70 43 116 106 145c66 30 151 37 237 32v41c0 80 -55 102 -122 102
c-68 0 -136 -21 -136 -100h-77c0 122 110 166 208 166c110 0 203 -52 203 -174v-348h-76v72c-55 -66 -120 -83 -179 -83zM234 56c60 1 119 35 156 96v103c-69 6 -145 -1 -196 -27c-37 -19 -62 -47 -62 -88c0 -53 41 -84 102 -84z" />
    <glyph glyph-name="ae" unicode="&#xe6;" horiz-adv-x="888" 
d="M845 263c0 -16 -1 -26 -2 -35h-374c8 -100 57 -168 155 -168c80 0 128 40 139 113h73c-17 -125 -106 -183 -209 -183c-97 0 -163 45 -201 111c-57 -66 -129 -112 -215 -112c-96 0 -164 57 -164 147c0 68 43 114 106 144c66 29 147 38 237 33v42c0 78 -54 101 -120 101
c-68 0 -138 -21 -138 -102h-77c0 122 110 168 208 168c77 0 146 -26 180 -83c38 50 97 83 181 83c171 0 221 -137 221 -259zM622 452c-104 0 -148 -73 -153 -159h298c-2 97 -47 159 -145 159zM234 56c57 1 112 31 167 106c-7 28 -12 58 -12 88c-67 7 -142 0 -193 -27
c-37 -19 -62 -47 -62 -83c0 -53 44 -84 100 -84z" />
    <glyph glyph-name="b" unicode="b" horiz-adv-x="601" 
d="M337 -11c-67 0 -127 19 -175 82v-71h-81v690h82v-251c45 63 110 83 174 83c154 0 223 -116 223 -266c0 -151 -69 -267 -223 -267zM315 61c111 0 163 73 163 195c0 119 -52 192 -163 192c-97 0 -157 -75 -157 -192c0 -120 60 -195 157 -195z" />
    <glyph glyph-name="c" unicode="c" horiz-adv-x="545" 
d="M283 -11c-141 0 -242 94 -242 265c0 174 101 268 242 268c125 0 220 -74 228 -204h-79c-5 87 -64 132 -148 132c-97 0 -162 -62 -162 -196c0 -131 65 -192 162 -192c83 0 142 43 147 128h79c-9 -128 -103 -201 -227 -201z" />
    <glyph glyph-name="cacute" unicode="&#x107;" horiz-adv-x="545" 
d="M223 573l108 117h104l-147 -117h-65zM283 -11c-141 0 -242 94 -242 265c0 174 101 268 242 268c125 0 220 -74 228 -204h-79c-5 87 -64 132 -148 132c-97 0 -162 -62 -162 -196c0 -131 65 -192 162 -192c83 0 142 43 147 128h79c-9 -128 -103 -201 -227 -201z" />
    <glyph glyph-name="ccaron" unicode="&#x10d;" horiz-adv-x="545" 
d="M242 559l-124 131h70l68 -73l69 73h70l-126 -131h-27zM283 -11c-141 0 -242 94 -242 265c0 174 101 268 242 268c125 0 220 -74 228 -204h-79c-5 87 -64 132 -148 132c-97 0 -162 -62 -162 -196c0 -131 65 -192 162 -192c83 0 142 43 147 128h79
c-9 -128 -103 -201 -227 -201z" />
    <glyph glyph-name="ccedilla" unicode="&#xe7;" horiz-adv-x="545" 
d="M284 62c83 0 142 43 147 128h79c-8 -116 -87 -187 -194 -199l-34 -53c71 -20 93 -50 93 -93c0 -59 -47 -89 -95 -89c-44 0 -77 28 -91 62l45 23c9 -24 20 -36 52 -36c15 0 36 9 36 36c1 23 -6 43 -43 55l-59 19l40 75c-129 10 -219 102 -219 264c0 174 101 268 242 268
c125 0 220 -74 228 -204h-79c-5 87 -64 132 -148 132c-97 0 -162 -62 -162 -196c0 -131 65 -192 162 -192z" />
    <glyph glyph-name="cdotaccent" unicode="&#x10b;" horiz-adv-x="545" 
d="M216 595v95h78v-95h-78zM283 -11c-141 0 -242 94 -242 265c0 174 101 268 242 268c125 0 220 -74 228 -204h-79c-5 87 -64 132 -148 132c-97 0 -162 -62 -162 -196c0 -131 65 -192 162 -192c83 0 142 43 147 128h79c-9 -128 -103 -201 -227 -201z" />
    <glyph glyph-name="d" unicode="d" horiz-adv-x="601" 
d="M264 -11c-154 0 -223 116 -223 267c0 150 69 266 223 266c64 0 129 -20 174 -83v251h82v-690h-81v71c-48 -63 -108 -82 -175 -82zM286 61c97 0 157 75 157 195c0 117 -60 192 -157 192c-111 0 -163 -73 -163 -192c0 -122 52 -195 163 -195z" />
    <glyph glyph-name="eth" unicode="&#xf0;" horiz-adv-x="551" 
d="M299 682c158 -92 211 -222 211 -430c0 -137 -85 -260 -234 -260c-151 0 -236 123 -236 260s85 260 233 260c54 0 109 -26 130 -57c-19 80 -76 132 -143 171l-47 -67l-37 26l45 62c-27 14 -55 27 -82 38l33 55c32 -12 62 -24 89 -38l43 60l35 -24zM276 67
c105 0 149 88 149 185c0 100 -47 185 -149 185c-105 0 -151 -88 -151 -185s46 -185 151 -185z" />
    <glyph glyph-name="dcaron" unicode="&#x10f;" horiz-adv-x="612" 
d="M438 439v251h82v-690h-81v71c-48 -63 -108 -82 -175 -82c-154 0 -223 116 -223 267c0 150 69 266 223 266c64 0 129 -20 174 -83zM580 690h97v-95l-55 -131h-44l37 131h-35v95zM286 61c97 0 157 75 157 195c0 117 -60 192 -157 192c-111 0 -163 -73 -163 -192
c0 -122 52 -195 163 -195z" />
    <glyph glyph-name="dcroat" unicode="&#x111;" horiz-adv-x="601" 
d="M611 637v-44h-91v-593h-81v71c-48 -63 -108 -82 -175 -82c-154 0 -223 116 -223 267c0 150 69 266 223 266c64 0 129 -20 174 -83v154h-140v44h140v53h82v-53h91zM286 61c97 0 157 75 157 195c0 117 -60 192 -157 192c-111 0 -163 -73 -163 -192c0 -122 52 -195 163 -195
z" />
    <glyph glyph-name="e" unicode="e" horiz-adv-x="535" 
d="M497 263c0 -16 -1 -26 -2 -35h-374c8 -100 57 -168 154 -168c81 0 129 40 140 113h73c-18 -125 -107 -183 -209 -183c-163 0 -238 126 -238 265c0 137 67 267 235 267c171 0 221 -137 221 -259zM273 452c-103 0 -148 -74 -153 -159h299c-2 97 -47 159 -146 159z" />
    <glyph glyph-name="eacute" unicode="&#xe9;" horiz-adv-x="535" 
d="M453 690l-147 -117h-65l108 117h104zM497 263c0 -16 -1 -26 -2 -35h-374c8 -100 57 -168 154 -168c81 0 129 40 140 113h73c-18 -125 -107 -183 -209 -183c-163 0 -238 126 -238 265c0 137 67 267 235 267c171 0 221 -137 221 -259zM273 452c-103 0 -148 -74 -153 -159
h299c-2 97 -47 159 -146 159z" />
    <glyph glyph-name="ecaron" unicode="&#x11b;" horiz-adv-x="535" 
d="M287 559h-27l-124 131h70l68 -73l69 73h70zM497 263c0 -16 -1 -26 -2 -35h-374c8 -100 57 -168 154 -168c81 0 129 40 140 113h73c-18 -125 -107 -183 -209 -183c-163 0 -238 126 -238 265c0 137 67 267 235 267c171 0 221 -137 221 -259zM273 452
c-103 0 -148 -74 -153 -159h299c-2 97 -47 159 -146 159z" />
    <glyph glyph-name="ecircumflex" unicode="&#xea;" horiz-adv-x="535" 
d="M274 634l-68 -76h-70l124 132h27l125 -132h-69zM497 263c0 -16 -1 -26 -2 -35h-374c8 -100 57 -168 154 -168c81 0 129 40 140 113h73c-18 -125 -107 -183 -209 -183c-163 0 -238 126 -238 265c0 137 67 267 235 267c171 0 221 -137 221 -259zM273 452
c-103 0 -148 -74 -153 -159h299c-2 97 -47 159 -146 159z" />
    <glyph glyph-name="edieresis" unicode="&#xeb;" horiz-adv-x="535" 
d="M234 690v-98h-82v98h82zM394 690v-98h-82v98h82zM497 263c0 -16 -1 -26 -2 -35h-374c8 -100 57 -168 154 -168c81 0 129 40 140 113h73c-18 -125 -107 -183 -209 -183c-163 0 -238 126 -238 265c0 137 67 267 235 267c171 0 221 -137 221 -259zM273 452
c-103 0 -148 -74 -153 -159h299c-2 97 -47 159 -146 159z" />
    <glyph glyph-name="edotaccent" unicode="&#x117;" horiz-adv-x="535" 
d="M313 690v-95h-78v95h78zM497 263c0 -16 -1 -26 -2 -35h-374c8 -100 57 -168 154 -168c81 0 129 40 140 113h73c-18 -125 -107 -183 -209 -183c-163 0 -238 126 -238 265c0 137 67 267 235 267c171 0 221 -137 221 -259zM273 452c-103 0 -148 -74 -153 -159h299
c-2 97 -47 159 -146 159z" />
    <glyph glyph-name="egrave" unicode="&#xe8;" horiz-adv-x="535" 
d="M309 572h-72l-139 118h105zM497 263c0 -16 -1 -26 -2 -35h-374c8 -100 57 -168 154 -168c81 0 129 40 140 113h73c-18 -125 -107 -183 -209 -183c-163 0 -238 126 -238 265c0 137 67 267 235 267c171 0 221 -137 221 -259zM273 452c-103 0 -148 -74 -153 -159h299
c-2 97 -47 159 -146 159z" />
    <glyph glyph-name="emacron" unicode="&#x113;" horiz-adv-x="535" 
d="M406 658v-54h-264v54h264zM497 263c0 -16 -1 -26 -2 -35h-374c8 -100 57 -168 154 -168c81 0 129 40 140 113h73c-18 -125 -107 -183 -209 -183c-163 0 -238 126 -238 265c0 137 67 267 235 267c171 0 221 -137 221 -259zM273 452c-103 0 -148 -74 -153 -159h299
c-2 97 -47 159 -146 159z" />
    <glyph glyph-name="eogonek" unicode="&#x119;" horiz-adv-x="535" 
d="M497 263c0 -16 -1 -26 -2 -35h-374c8 -100 57 -168 154 -168c81 0 129 40 140 113h73c-11 -77 -48 -128 -100 -157c-31 -29 -47 -58 -47 -90c0 -39 22 -57 48 -56c18 1 40 11 54 32l45 -30c-21 -32 -52 -55 -98 -55c-60 0 -101 38 -101 99c0 27 9 53 25 76
c-11 -1 -23 -2 -35 -2c-163 0 -238 126 -238 265c0 137 67 267 235 267c171 0 221 -137 221 -259zM273 452c-103 0 -148 -74 -153 -159h299c-2 97 -47 159 -146 159z" />
    <glyph glyph-name="uni1EBD" unicode="&#x1ebd;" horiz-adv-x="535" 
d="M197 641c-33 0 -46 -30 -46 -65h-50c0 69 27 115 92 115c82 0 100 -74 154 -74c34 0 47 30 47 73h53c0 -81 -38 -121 -98 -121c-78 0 -99 72 -152 72zM497 263c0 -16 -1 -26 -2 -35h-374c8 -100 57 -168 154 -168c81 0 129 40 140 113h73c-18 -125 -107 -183 -209 -183
c-163 0 -238 126 -238 265c0 137 67 267 235 267c171 0 221 -137 221 -259zM273 452c-103 0 -148 -74 -153 -159h299c-2 97 -47 159 -146 159z" />
    <glyph glyph-name="f" unicode="f" horiz-adv-x="332" 
d="M106 0v447h-91v65h91v32c0 89 57 146 150 146h63v-66h-56c-46 0 -75 -30 -75 -77v-35h131v-65h-131v-447h-82z" />
    <glyph glyph-name="g" unicode="g" horiz-adv-x="489" 
d="M469 512v-78h-67c18 -28 28 -61 28 -95c0 -102 -84 -178 -188 -178c-35 0 -69 10 -99 27c-17 -19 -29 -33 -29 -57c0 -29 29 -48 91 -48h114c86 0 142 -41 142 -128c0 -93 -73 -141 -209 -141c-131 0 -212 43 -210 156l33 73c-21 17 -34 41 -34 74c0 53 25 81 54 111
c-27 30 -43 68 -43 111c0 103 83 183 190 183c52 0 99 -21 133 -55c28 31 55 45 94 45zM242 231c62 0 111 50 111 110c0 62 -49 112 -111 112s-113 -50 -113 -112c0 -60 51 -110 113 -110zM299 11h-110c-20 0 -39 2 -57 6l-19 -45c-7 -57 51 -92 131 -92c93 0 138 23 138 70
c0 46 -42 61 -83 61z" />
    <glyph glyph-name="gbreve" unicode="&#x11f;" horiz-adv-x="489" 
d="M242 558c-83 0 -150 47 -150 132h65c0 -47 38 -77 85 -77c46 0 84 31 84 77h65c0 -85 -66 -132 -149 -132zM469 512v-78h-67c18 -28 28 -61 28 -95c0 -102 -84 -178 -188 -178c-35 0 -69 10 -99 27c-17 -19 -29 -33 -29 -57c0 -29 29 -48 91 -48h114
c86 0 142 -41 142 -128c0 -93 -73 -141 -209 -141c-131 0 -212 43 -210 156l33 73c-21 17 -34 41 -34 74c0 53 25 81 54 111c-27 30 -43 68 -43 111c0 103 83 183 190 183c52 0 99 -21 133 -55c28 31 55 45 94 45zM242 231c62 0 111 50 111 110c0 62 -49 112 -111 112
s-113 -50 -113 -112c0 -60 51 -110 113 -110zM299 11h-110c-20 0 -39 2 -57 6l-19 -45c-7 -57 51 -92 131 -92c93 0 138 23 138 70c0 46 -42 61 -83 61z" />
    <glyph glyph-name="gcommaaccent" unicode="&#x123;" horiz-adv-x="489" 
d="M366 690l-61 -132h-101l111 132h51zM469 512v-78h-67c18 -28 28 -61 28 -95c0 -102 -84 -178 -188 -178c-35 0 -69 10 -99 27c-17 -19 -29 -33 -29 -57c0 -29 29 -48 91 -48h114c86 0 142 -41 142 -128c0 -93 -73 -141 -209 -141c-131 0 -212 43 -210 156l33 73
c-21 17 -34 41 -34 74c0 53 25 81 54 111c-27 30 -43 68 -43 111c0 103 83 183 190 183c52 0 99 -21 133 -55c28 31 55 45 94 45zM242 231c62 0 111 50 111 110c0 62 -49 112 -111 112s-113 -50 -113 -112c0 -60 51 -110 113 -110zM299 11h-110c-20 0 -39 2 -57 6l-19 -45
c-7 -57 51 -92 131 -92c93 0 138 23 138 70c0 46 -42 61 -83 61z" />
    <glyph glyph-name="gdotaccent" unicode="&#x121;" horiz-adv-x="489" 
d="M281 690v-95h-78v95h78zM469 512v-78h-67c18 -28 28 -61 28 -95c0 -102 -84 -178 -188 -178c-35 0 -69 10 -99 27c-17 -19 -29 -33 -29 -57c0 -29 29 -48 91 -48h114c86 0 142 -41 142 -128c0 -93 -73 -141 -209 -141c-131 0 -212 43 -210 156l33 73
c-21 17 -34 41 -34 74c0 53 25 81 54 111c-27 30 -43 68 -43 111c0 103 83 183 190 183c52 0 99 -21 133 -55c28 31 55 45 94 45zM242 231c62 0 111 50 111 110c0 62 -49 112 -111 112s-113 -50 -113 -112c0 -60 51 -110 113 -110zM299 11h-110c-20 0 -39 2 -57 6l-19 -45
c-7 -57 51 -92 131 -92c93 0 138 23 138 70c0 46 -42 61 -83 61z" />
    <glyph glyph-name="h" unicode="h" 
d="M81 0v690h82v-245c31 49 92 77 155 77c106 0 170 -74 170 -188v-334h-81v323c0 85 -38 126 -107 126c-79 0 -137 -64 -137 -148v-301h-82z" />
    <glyph glyph-name="hbar" unicode="&#x127;" 
d="M318 522c106 0 170 -74 170 -188v-334h-81v323c0 85 -38 126 -107 126c-79 0 -137 -64 -137 -148v-301h-82v574h-87v44h87v72h82v-72h144v-44h-144v-129c31 49 92 77 155 77z" />
    <glyph glyph-name="i" unicode="i" horiz-adv-x="254" 
d="M81 592v98h92v-98h-92zM86 0v512h82v-512h-82z" />
    <glyph glyph-name="dotlessi" unicode="&#x131;" horiz-adv-x="245" 
d="M82 0v512h81v-512h-81z" />
    <glyph glyph-name="iacute" unicode="&#xed;" horiz-adv-x="245" 
d="M89 573l108 117h104l-147 -117h-65zM82 0v512h81v-512h-81z" />
    <glyph glyph-name="uni01D0" unicode="&#x1d0;" horiz-adv-x="245" 
d="M108 559l-124 131h70l68 -73l69 73h70l-126 -131h-27zM82 0v512h81v-512h-81z" />
    <glyph glyph-name="icircumflex" unicode="&#xee;" horiz-adv-x="245" 
d="M-16 558l124 132h27l125 -132h-69l-69 76l-68 -76h-70zM82 0v512h81v-512h-81z" />
    <glyph glyph-name="idieresis" unicode="&#xef;" horiz-adv-x="245" 
d="M0 592v98h82v-98h-82zM160 592v98h82v-98h-82zM82 0v512h81v-512h-81z" />
    <glyph glyph-name="i.loclTRK" horiz-adv-x="245" 
d="M83 595v95h78v-95h-78zM82 0v512h81v-512h-81z" />
    <glyph glyph-name="igrave" unicode="&#xec;" horiz-adv-x="245" 
d="M85 572l-139 118h105l106 -118h-72zM82 0v512h81v-512h-81z" />
    <glyph glyph-name="imacron" unicode="&#x12b;" horiz-adv-x="245" 
d="M-9 604v54h264v-54h-264zM82 0v512h81v-512h-81z" />
    <glyph glyph-name="iogonek" unicode="&#x12f;" horiz-adv-x="254" 
d="M173 690v-98h-92v98h92zM194 -135l45 -30c-21 -32 -52 -55 -98 -55c-60 0 -101 38 -101 99c0 47 26 90 72 121h-26v512h82v-512h-5c-46 -37 -71 -71 -71 -111c0 -39 22 -57 48 -56c18 1 40 11 54 32z" />
    <glyph glyph-name="itilde" unicode="&#x129;" horiz-adv-x="245" 
d="M-51 576c0 69 27 115 92 115c82 0 100 -74 154 -74c34 0 47 30 47 73h53c0 -81 -38 -121 -98 -121c-78 0 -99 72 -152 72c-33 0 -46 -30 -46 -65h-50zM82 0v512h81v-512h-81z" />
    <glyph glyph-name="j" unicode="j" horiz-adv-x="255" 
d="M82 592v98h92v-98h-92zM-20 -178v68c71 0 108 41 108 101v521h82v-513c0 -119 -68 -177 -190 -177z" />
    <glyph glyph-name="uni0237" unicode="&#x237;" horiz-adv-x="246" 
d="M-20 -178v68h48c42 0 55 24 55 61v561h82v-555c0 -90 -36 -135 -129 -135h-56z" />
    <glyph glyph-name="k" unicode="k" horiz-adv-x="512" 
d="M421 0l-196 252l-62 -60v-192h-82v690h82v-399l227 221h101l-213 -208l244 -304h-101z" />
    <glyph glyph-name="kcommaaccent" unicode="&#x137;" horiz-adv-x="512" 
d="M278 304l244 -304h-101l-196 252l-62 -60v-192h-82v690h82v-399l227 221h101zM178 -217l60 148h101l-110 -148h-51z" />
    <glyph glyph-name="kgreenlandic" unicode="&#x138;" horiz-adv-x="512" 
d="M419 0l-195 252l-61 -60v-192h-82v512h82v-221l226 221h102l-213 -208l244 -304h-103z" />
    <glyph glyph-name="l" unicode="l" horiz-adv-x="246" 
d="M82 0v690h82v-690h-82z" />
    <glyph glyph-name="lacute" unicode="&#x13a;" horiz-adv-x="246" 
d="M90 751l108 117h104l-147 -117h-65zM82 0v690h82v-690h-82z" />
    <glyph glyph-name="lcaron" unicode="&#x13e;" horiz-adv-x="307" 
d="M82 0v690h82v-690h-82zM232 690h110v-108l-62 -149h-49l42 149h-41v108z" />
    <glyph glyph-name="lcommaaccent" unicode="&#x13c;" horiz-adv-x="246" 
d="M82 0v690h82v-690h-82zM11 -217l60 148h101l-110 -148h-51z" />
    <glyph glyph-name="lslash" unicode="&#x142;" horiz-adv-x="246" 
d="M299 536v-83l-135 -106v-347h-82v283l-66 -52v80l66 53v326h82v-262z" />
    <glyph glyph-name="m" unicode="m" horiz-adv-x="837" 
d="M81 0v512h81v-61c32 47 82 71 143 71s114 -28 138 -88c34 66 96 89 160 88c107 -1 162 -74 162 -189v-333h-82v329c0 69 -25 122 -100 122c-83 0 -120 -67 -120 -149v-302h-82v331c0 70 -23 120 -97 120c-85 0 -121 -68 -121 -149v-302h-82z" />
    <glyph glyph-name="n" unicode="n" 
d="M81 0v512h82v-69c32 51 89 79 154 79c106 0 171 -74 171 -188v-334h-81v320c0 93 -39 129 -104 129c-82 0 -140 -59 -140 -151v-298h-82z" />
    <glyph glyph-name="nacute" unicode="&#x144;" 
d="M241 575l108 117h104l-147 -117h-65zM81 0v512h82v-69c32 51 89 79 154 79c106 0 171 -74 171 -188v-334h-81v320c0 93 -39 129 -104 129c-82 0 -140 -59 -140 -151v-298h-82z" />
    <glyph glyph-name="ncaron" unicode="&#x148;" 
d="M260 561l-124 131h70l68 -73l69 73h70l-126 -131h-27zM81 0v512h82v-69c32 51 89 79 154 79c106 0 171 -74 171 -188v-334h-81v320c0 93 -39 129 -104 129c-82 0 -140 -59 -140 -151v-298h-82z" />
    <glyph glyph-name="ncommaaccent" unicode="&#x146;" 
d="M81 0v512h82v-69c32 51 89 79 154 79c106 0 171 -74 171 -188v-334h-81v320c0 93 -39 129 -104 129c-82 0 -140 -59 -140 -151v-298h-82zM173 -217l60 148h101l-110 -148h-51z" />
    <glyph glyph-name="eng" unicode="&#x14b;" horiz-adv-x="559" 
d="M302 -141v59h23c77 0 78 60 78 77v291c0 66 -23 133 -102 133c-78 0 -141 -65 -141 -146v-273h-82v488h82v-80h6c34 60 91 88 155 88c118 0 164 -94 164 -199v-305c0 -34 -1 -133 -137 -133h-46z" />
    <glyph glyph-name="ntilde" unicode="&#xf1;" 
d="M101 578c0 69 27 115 92 115c82 0 100 -74 154 -74c34 0 47 30 47 73h53c0 -81 -38 -121 -98 -121c-78 0 -99 72 -152 72c-33 0 -46 -30 -46 -65h-50zM81 0v512h82v-69c32 51 89 79 154 79c106 0 171 -74 171 -188v-334h-81v320c0 93 -39 129 -104 129
c-82 0 -140 -59 -140 -151v-298h-82z" />
    <glyph glyph-name="o" unicode="o" horiz-adv-x="567" 
d="M283 -11c-141 0 -242 94 -242 265c0 174 101 268 242 268c140 0 243 -94 243 -268c0 -171 -103 -265 -243 -265zM284 62c99 0 163 61 163 192c0 134 -64 196 -163 196c-97 0 -162 -62 -162 -196c0 -131 65 -192 162 -192z" />
    <glyph glyph-name="oacute" unicode="&#xf3;" horiz-adv-x="567" 
d="M250 573l108 117h104l-147 -117h-65zM283 -11c-141 0 -242 94 -242 265c0 174 101 268 242 268c140 0 243 -94 243 -268c0 -171 -103 -265 -243 -265zM284 62c99 0 163 61 163 192c0 134 -64 196 -163 196c-97 0 -162 -62 -162 -196c0 -131 65 -192 162 -192z" />
    <glyph glyph-name="uni01D2" unicode="&#x1d2;" horiz-adv-x="567" 
d="M269 559l-124 131h70l68 -73l69 73h70l-126 -131h-27zM283 -11c-141 0 -242 94 -242 265c0 174 101 268 242 268c140 0 243 -94 243 -268c0 -171 -103 -265 -243 -265zM284 62c99 0 163 61 163 192c0 134 -64 196 -163 196c-97 0 -162 -62 -162 -196
c0 -131 65 -192 162 -192z" />
    <glyph glyph-name="ocircumflex" unicode="&#xf4;" horiz-adv-x="567" 
d="M145 558l124 132h27l125 -132h-69l-69 76l-68 -76h-70zM283 -11c-141 0 -242 94 -242 265c0 174 101 268 242 268c140 0 243 -94 243 -268c0 -171 -103 -265 -243 -265zM284 62c99 0 163 61 163 192c0 134 -64 196 -163 196c-97 0 -162 -62 -162 -196
c0 -131 65 -192 162 -192z" />
    <glyph glyph-name="odieresis" unicode="&#xf6;" horiz-adv-x="567" 
d="M162 592v98h82v-98h-82zM322 592v98h82v-98h-82zM283 -11c-141 0 -242 94 -242 265c0 174 101 268 242 268c140 0 243 -94 243 -268c0 -171 -103 -265 -243 -265zM284 62c99 0 163 61 163 192c0 134 -64 196 -163 196c-97 0 -162 -62 -162 -196c0 -131 65 -192 162 -192z
" />
    <glyph glyph-name="ograve" unicode="&#xf2;" horiz-adv-x="567" 
d="M247 572l-139 118h105l106 -118h-72zM283 -11c-141 0 -242 94 -242 265c0 174 101 268 242 268c140 0 243 -94 243 -268c0 -171 -103 -265 -243 -265zM284 62c99 0 163 61 163 192c0 134 -64 196 -163 196c-97 0 -162 -62 -162 -196c0 -131 65 -192 162 -192z" />
    <glyph glyph-name="ohungarumlaut" unicode="&#x151;" horiz-adv-x="567" 
d="M150 576l104 114h97l-128 -114h-73zM317 576l103 114h102l-133 -114h-72zM283 -11c-141 0 -242 94 -242 265c0 174 101 268 242 268c140 0 243 -94 243 -268c0 -171 -103 -265 -243 -265zM284 62c99 0 163 61 163 192c0 134 -64 196 -163 196c-97 0 -162 -62 -162 -196
c0 -131 65 -192 162 -192z" />
    <glyph glyph-name="omacron" unicode="&#x14d;" horiz-adv-x="567" 
d="M152 604v54h264v-54h-264zM283 -11c-141 0 -242 94 -242 265c0 174 101 268 242 268c140 0 243 -94 243 -268c0 -171 -103 -265 -243 -265zM284 62c99 0 163 61 163 192c0 134 -64 196 -163 196c-97 0 -162 -62 -162 -196c0 -131 65 -192 162 -192z" />
    <glyph glyph-name="oslash" unicode="&#xf8;" horiz-adv-x="567" 
d="M481 423c28 -43 45 -100 45 -169c0 -171 -103 -265 -243 -265c-69 0 -128 22 -171 65l-21 -21l-30 31l24 24c-28 42 -44 98 -44 166c0 174 101 268 242 268c68 0 127 -22 170 -65l22 22l31 -31zM122 254c0 -44 8 -80 21 -108l257 258c-28 31 -68 46 -116 46
c-97 0 -162 -62 -162 -196zM284 62c99 0 163 61 163 192c0 46 -8 84 -22 113l-258 -258c28 -32 68 -47 117 -47z" />
    <glyph glyph-name="oslashacute" unicode="&#x1ff;" horiz-adv-x="567" 
d="M462 690l-147 -117h-65l108 117h104zM481 423c28 -43 45 -100 45 -169c0 -171 -103 -265 -243 -265c-69 0 -128 22 -171 65l-21 -21l-30 31l24 24c-28 42 -44 98 -44 166c0 174 101 268 242 268c68 0 127 -22 170 -65l22 22l31 -31zM122 254c0 -44 8 -80 21 -108l257 258
c-28 31 -68 46 -116 46c-97 0 -162 -62 -162 -196zM284 62c99 0 163 61 163 192c0 46 -8 84 -22 113l-258 -258c28 -32 68 -47 117 -47z" />
    <glyph glyph-name="otilde" unicode="&#xf5;" horiz-adv-x="567" 
d="M110 576c0 69 27 115 92 115c82 0 100 -74 154 -74c34 0 47 30 47 73h53c0 -81 -38 -121 -98 -121c-78 0 -99 72 -152 72c-33 0 -46 -30 -46 -65h-50zM283 -11c-141 0 -242 94 -242 265c0 174 101 268 242 268c140 0 243 -94 243 -268c0 -171 -103 -265 -243 -265z
M284 62c99 0 163 61 163 192c0 134 -64 196 -163 196c-97 0 -162 -62 -162 -196c0 -131 65 -192 162 -192z" />
    <glyph glyph-name="oe" unicode="&#x153;" horiz-adv-x="949" 
d="M905 263c0 -16 0 -26 -1 -35h-374c7 -100 56 -168 154 -168c81 0 128 40 139 113h73c-17 -125 -106 -183 -209 -183c-96 0 -161 44 -199 109c-42 -72 -116 -110 -205 -110c-141 0 -242 94 -242 265c0 174 101 268 242 268c88 0 162 -37 204 -109c36 65 99 109 197 109
c171 0 221 -137 221 -259zM682 452c-104 0 -148 -73 -153 -159h298c-1 97 -47 159 -145 159zM284 62c99 0 163 61 163 192c0 134 -64 196 -163 196c-97 0 -162 -62 -162 -196c0 -131 65 -192 162 -192z" />
    <glyph glyph-name="p" unicode="p" horiz-adv-x="600" 
d="M81 -178v690h80v-75c44 59 107 85 176 85c142 0 222 -115 222 -266s-81 -267 -223 -267c-67 0 -131 20 -174 80v-247h-81zM314 59c101 0 164 73 164 197c0 123 -63 196 -164 196c-98 0 -160 -74 -160 -196c0 -123 62 -197 160 -197z" />
    <glyph glyph-name="thorn" unicode="&#xfe;" horiz-adv-x="583" 
d="M81 -178v868h82v-262h5c39 43 87 70 162 70c135 0 212 -111 212 -254s-77 -254 -212 -254c-76 0 -125 26 -163 70h-3v-238h-83zM308 59c106 0 154 85 154 186s-48 186 -154 186c-105 0 -151 -86 -151 -186c0 -99 46 -186 151 -186z" />
    <glyph glyph-name="q" unicode="q" horiz-adv-x="600" 
d="M519 -178h-81v247c-43 -60 -107 -80 -174 -80c-142 0 -223 116 -223 267s80 266 222 266c70 0 132 -26 176 -85v75h80v-690zM286 59c98 0 160 74 160 197c0 122 -62 196 -160 196c-101 0 -164 -73 -164 -196c0 -124 63 -197 164 -197z" />
    <glyph glyph-name="r" unicode="r" horiz-adv-x="342" 
d="M81 0v512h81v-70c24 46 68 78 124 78c16 0 33 -3 51 -8v-76h-12c-16 5 -31 7 -45 7c-76 0 -117 -66 -117 -145v-298h-82z" />
    <glyph glyph-name="racute" unicode="&#x155;" horiz-adv-x="342" 
d="M176 573l108 117h104l-147 -117h-65zM81 0v512h81v-70c24 46 68 78 124 78c16 0 33 -3 51 -8v-76h-12c-16 5 -31 7 -45 7c-76 0 -117 -66 -117 -145v-298h-82z" />
    <glyph glyph-name="rcaron" unicode="&#x159;" horiz-adv-x="342" 
d="M195 559l-124 131h70l68 -73l69 73h70l-126 -131h-27zM81 0v512h81v-70c24 46 68 78 124 78c16 0 33 -3 51 -8v-76h-12c-16 5 -31 7 -45 7c-76 0 -117 -66 -117 -145v-298h-82z" />
    <glyph glyph-name="rcommaaccent" unicode="&#x157;" horiz-adv-x="342" 
d="M81 0v512h81v-70c24 46 68 78 124 78c16 0 33 -3 51 -8v-76h-12c-16 5 -31 7 -45 7c-76 0 -117 -66 -117 -145v-298h-82zM10 -217l60 148h101l-110 -148h-51z" />
    <glyph glyph-name="s" unicode="s" horiz-adv-x="470" 
d="M264 -11c-68 0 -121 11 -161 41c-42 30 -67 77 -67 143h77c0 -43 13 -73 37 -92c24 -17 58 -26 103 -25c57 0 105 26 105 85c0 62 -65 75 -139 92c-84 19 -173 42 -173 139s73 150 184 150c57 0 101 -13 132 -35c44 -30 64 -78 64 -131h-73c0 37 -13 63 -36 79
c-21 14 -51 21 -87 21c-65 0 -109 -29 -109 -76c0 -51 68 -64 145 -83c87 -21 171 -46 171 -147c0 -103 -78 -161 -173 -161z" />
    <glyph glyph-name="sacute" unicode="&#x15b;" horiz-adv-x="470" 
d="M196 573l108 117h104l-147 -117h-65zM264 -11c-68 0 -121 11 -161 41c-42 30 -67 77 -67 143h77c0 -43 13 -73 37 -92c24 -17 58 -26 103 -25c57 0 105 26 105 85c0 62 -65 75 -139 92c-84 19 -173 42 -173 139s73 150 184 150c57 0 101 -13 132 -35
c44 -30 64 -78 64 -131h-73c0 37 -13 63 -36 79c-21 14 -51 21 -87 21c-65 0 -109 -29 -109 -76c0 -51 68 -64 145 -83c87 -21 171 -46 171 -147c0 -103 -78 -161 -173 -161z" />
    <glyph glyph-name="scaron" unicode="&#x161;" horiz-adv-x="470" 
d="M214 559l-124 131h70l68 -73l69 73h70l-126 -131h-27zM264 -11c-68 0 -121 11 -161 41c-42 30 -67 77 -67 143h77c0 -43 13 -73 37 -92c24 -17 58 -26 103 -25c57 0 105 26 105 85c0 62 -65 75 -139 92c-84 19 -173 42 -173 139s73 150 184 150c57 0 101 -13 132 -35
c44 -30 64 -78 64 -131h-73c0 37 -13 63 -36 79c-21 14 -51 21 -87 21c-65 0 -109 -29 -109 -76c0 -51 68 -64 145 -83c87 -21 171 -46 171 -147c0 -103 -78 -161 -173 -161z" />
    <glyph glyph-name="scedilla" unicode="&#x15f;" horiz-adv-x="470" 
d="M437 150c0 -98 -71 -156 -161 -161l-33 -51c71 -20 93 -50 93 -93c0 -59 -47 -89 -95 -89c-44 0 -77 28 -91 62l45 23c9 -24 20 -36 52 -36c15 0 36 9 36 36c1 23 -6 43 -43 55l-59 19l40 76c-48 4 -87 16 -118 39c-42 30 -67 77 -67 143h77c0 -43 13 -73 37 -92
c24 -17 58 -26 103 -25c57 0 105 26 105 85c0 62 -65 75 -139 92c-84 19 -173 42 -173 139s73 150 184 150c57 0 101 -13 132 -35c44 -30 64 -78 64 -131h-73c0 37 -13 63 -36 79c-21 14 -51 21 -87 21c-65 0 -109 -29 -109 -76c0 -51 68 -64 145 -83
c87 -21 171 -46 171 -147z" />
    <glyph glyph-name="scommaaccent" unicode="&#x219;" horiz-adv-x="470" 
d="M264 -11c-68 0 -121 11 -161 41c-42 30 -67 77 -67 143h77c0 -43 13 -73 37 -92c24 -17 58 -26 103 -25c57 0 105 26 105 85c0 62 -65 75 -139 92c-84 19 -173 42 -173 139s73 150 184 150c57 0 101 -13 132 -35c44 -30 64 -78 64 -131h-73c0 37 -13 63 -36 79
c-21 14 -51 21 -87 21c-65 0 -109 -29 -109 -76c0 -51 68 -64 145 -83c87 -21 171 -46 171 -147c0 -103 -78 -161 -173 -161zM140 -217l60 148h101l-110 -148h-51z" />
    <glyph glyph-name="germandbls" unicode="&#xdf;" horiz-adv-x="554" 
d="M347 -9c-32 0 -63 7 -95 17v85c35 -17 68 -25 93 -25c47 0 81 32 81 79c0 106 -140 102 -140 230c0 105 102 87 102 168c0 48 -37 84 -105 84c-78 0 -121 -48 -121 -116v-513h-84v515c0 117 91 185 196 185c102 0 201 -65 201 -164s-111 -94 -111 -162
c0 -78 152 -90 152 -224c0 -94 -73 -159 -169 -159z" />
    <glyph glyph-name="t" unicode="t" horiz-adv-x="322" 
d="M224 0c-89 0 -131 44 -131 136v311h-77v65h77v118h81v-118h123v-65h-123v-293c0 -65 19 -88 74 -88h49v-66h-73z" />
    <glyph glyph-name="tbar" unicode="&#x167;" horiz-adv-x="322" 
d="M297 447h-123v-169h123v-44h-123v-80c0 -65 19 -88 74 -88h49v-66h-73c-89 0 -131 44 -131 136v98h-75v44h75v169h-77v65h77v118h81v-118h123v-65z" />
    <glyph glyph-name="tcaron" unicode="&#x165;" horiz-adv-x="322" 
d="M270 818h110v-108l-62 -149h-49l42 149h-41v108zM174 630v-118h123v-65h-123v-293c0 -65 19 -88 74 -88h49v-66h-73c-89 0 -131 44 -131 136v311h-77v65h77v118h81z" />
    <glyph glyph-name="uni0163" unicode="&#x163;" horiz-adv-x="322" 
d="M215 -54c71 -20 93 -50 93 -93c0 -59 -47 -89 -95 -89c-44 0 -77 28 -91 62l45 23c9 -24 20 -36 52 -36c15 0 36 9 36 36c1 23 -6 43 -43 55l-59 19l42 79c-69 9 -102 53 -102 134v311h-77v65h77v118h81v-118h123v-65h-123v-293c0 -65 19 -88 74 -88h49v-66h-47z" />
    <glyph glyph-name="uni021B" unicode="&#x21b;" horiz-adv-x="322" 
d="M224 0c-89 0 -131 44 -131 136v311h-77v65h77v118h81v-118h123v-65h-123v-293c0 -65 19 -88 74 -88h49v-66h-73zM112 -209l60 148h101l-110 -148h-51z" />
    <glyph glyph-name="u" unicode="u" 
d="M245 -8c-108 0 -173 73 -173 187v333h82v-320c0 -87 38 -124 104 -124c83 0 140 60 140 145v299h81v-512h-82v71c-38 -55 -91 -79 -152 -79z" />
    <glyph glyph-name="uacute" unicode="&#xfa;" 
d="M243 573l108 117h104l-147 -117h-65zM245 -8c-108 0 -173 73 -173 187v333h82v-320c0 -87 38 -124 104 -124c83 0 140 60 140 145v299h81v-512h-82v71c-38 -55 -91 -79 -152 -79z" />
    <glyph glyph-name="uni01D4" unicode="&#x1d4;" 
d="M261 559l-124 131h70l68 -73l69 73h70l-126 -131h-27zM245 -8c-108 0 -173 73 -173 187v333h82v-320c0 -87 38 -124 104 -124c83 0 140 60 140 145v299h81v-512h-82v71c-38 -55 -91 -79 -152 -79z" />
    <glyph glyph-name="ucircumflex" unicode="&#xfb;" 
d="M137 558l124 132h27l125 -132h-69l-69 76l-68 -76h-70zM245 -8c-108 0 -173 73 -173 187v333h82v-320c0 -87 38 -124 104 -124c83 0 140 60 140 145v299h81v-512h-82v71c-38 -55 -91 -79 -152 -79z" />
    <glyph glyph-name="udieresis" unicode="&#xfc;" 
d="M154 592v98h82v-98h-82zM314 592v98h82v-98h-82zM245 -8c-108 0 -173 73 -173 187v333h82v-320c0 -87 38 -124 104 -124c83 0 140 60 140 145v299h81v-512h-82v71c-38 -55 -91 -79 -152 -79z" />
    <glyph glyph-name="uni01D8" unicode="&#x1d8;" 
d="M243 751l108 117h104l-147 -117h-65zM154 592v98h82v-98h-82zM314 592v98h82v-98h-82zM245 -8c-108 0 -173 73 -173 187v333h82v-320c0 -87 38 -124 104 -124c83 0 140 60 140 145v299h81v-512h-82v71c-38 -55 -91 -79 -152 -79z" />
    <glyph glyph-name="uni01DA" unicode="&#x1da;" 
d="M261 737l-124 131h70l68 -73l69 73h70l-126 -131h-27zM154 592v98h82v-98h-82zM314 592v98h82v-98h-82zM245 -8c-108 0 -173 73 -173 187v333h82v-320c0 -87 38 -124 104 -124c83 0 140 60 140 145v299h81v-512h-82v71c-38 -55 -91 -79 -152 -79z" />
    <glyph glyph-name="uni01DC" unicode="&#x1dc;" 
d="M239 750l-139 118h105l106 -118h-72zM154 592v98h82v-98h-82zM314 592v98h82v-98h-82zM245 -8c-108 0 -173 73 -173 187v333h82v-320c0 -87 38 -124 104 -124c83 0 140 60 140 145v299h81v-512h-82v71c-38 -55 -91 -79 -152 -79z" />
    <glyph glyph-name="uni01D6" unicode="&#x1d6;" 
d="M144 782v54h264v-54h-264zM154 592v98h82v-98h-82zM314 592v98h82v-98h-82zM245 -8c-108 0 -173 73 -173 187v333h82v-320c0 -87 38 -124 104 -124c83 0 140 60 140 145v299h81v-512h-82v71c-38 -55 -91 -79 -152 -79z" />
    <glyph glyph-name="ugrave" unicode="&#xf9;" 
d="M239 572l-139 118h105l106 -118h-72zM245 -8c-108 0 -173 73 -173 187v333h82v-320c0 -87 38 -124 104 -124c83 0 140 60 140 145v299h81v-512h-82v71c-38 -55 -91 -79 -152 -79z" />
    <glyph glyph-name="uhungarumlaut" unicode="&#x171;" 
d="M142 576l104 114h97l-128 -114h-73zM309 576l103 114h102l-133 -114h-72zM245 -8c-108 0 -173 73 -173 187v333h82v-320c0 -87 38 -124 104 -124c83 0 140 60 140 145v299h81v-512h-82v71c-38 -55 -91 -79 -152 -79z" />
    <glyph glyph-name="umacron" unicode="&#x16b;" 
d="M144 604v54h264v-54h-264zM245 -8c-108 0 -173 73 -173 187v333h82v-320c0 -87 38 -124 104 -124c83 0 140 60 140 145v299h81v-512h-82v71c-38 -55 -91 -79 -152 -79z" />
    <glyph glyph-name="uogonek" unicode="&#x173;" 
d="M510 -135l45 -30c-21 -32 -52 -55 -98 -55c-60 0 -101 38 -101 99c0 47 26 90 72 121h-31v71c-38 -55 -91 -79 -152 -79c-108 0 -173 73 -173 187v333h82v-320c0 -87 38 -124 104 -124c83 0 140 60 140 145v299h81v-512c-46 -37 -71 -71 -71 -111c0 -39 22 -57 48 -56
c18 1 40 11 54 32z" />
    <glyph glyph-name="uring" unicode="&#x16f;" 
d="M274 551c-55 0 -97 44 -97 99c0 54 43 97 97 97s98 -42 98 -97c0 -54 -43 -99 -98 -99zM274 597c29 0 53 22 53 52s-22 53 -53 53s-52 -21 -52 -53c0 -31 23 -52 52 -52zM245 -8c-108 0 -173 73 -173 187v333h82v-320c0 -87 38 -124 104 -124c83 0 140 60 140 145v299h81
v-512h-82v71c-38 -55 -91 -79 -152 -79z" />
    <glyph glyph-name="utilde" unicode="&#x169;" 
d="M102 576c0 69 27 115 92 115c82 0 100 -74 154 -74c34 0 47 30 47 73h53c0 -81 -38 -121 -98 -121c-78 0 -99 72 -152 72c-33 0 -46 -30 -46 -65h-50zM245 -8c-108 0 -173 73 -173 187v333h82v-320c0 -87 38 -124 104 -124c83 0 140 60 140 145v299h81v-512h-82v71
c-38 -55 -91 -79 -152 -79z" />
    <glyph glyph-name="v" unicode="v" horiz-adv-x="537" 
d="M423 512h90l-187 -512h-115l-188 512h92l153 -451z" />
    <glyph glyph-name="w" unicode="w" horiz-adv-x="718" 
d="M613 512h89l-115 -512h-115l-114 402l-112 -402h-117l-113 512h89l85 -454l131 454h74l133 -454z" />
    <glyph glyph-name="wacute" unicode="&#x1e83;" horiz-adv-x="718" 
d="M538 690l-147 -117h-65l108 117h104zM613 512h89l-115 -512h-115l-114 402l-112 -402h-117l-113 512h89l85 -454l131 454h74l133 -454z" />
    <glyph glyph-name="wcircumflex" unicode="&#x175;" horiz-adv-x="718" 
d="M358 634l-68 -76h-70l124 132h27l125 -132h-69zM613 512h89l-115 -512h-115l-114 402l-112 -402h-117l-113 512h89l85 -454l131 454h74l133 -454z" />
    <glyph glyph-name="wdieresis" unicode="&#x1e85;" horiz-adv-x="718" 
d="M319 690v-98h-82v98h82zM479 690v-98h-82v98h82zM613 512h89l-115 -512h-115l-114 402l-112 -402h-117l-113 512h89l85 -454l131 454h74l133 -454z" />
    <glyph glyph-name="wgrave" unicode="&#x1e81;" horiz-adv-x="718" 
d="M394 572h-72l-139 118h105zM613 512h89l-115 -512h-115l-114 402l-112 -402h-117l-113 512h89l85 -454l131 454h74l133 -454z" />
    <glyph glyph-name="x" unicode="x" horiz-adv-x="514" 
d="M3 0l201 258l-201 254h101l154 -198l152 198h101l-201 -254l201 -258h-101l-152 202l-154 -202h-101z" />
    <glyph glyph-name="y" unicode="y" horiz-adv-x="485" 
d="M31 -178v71c127 -3 152 54 177 107l-193 512h89l143 -412l140 412h90l-202 -537c-53 -139 -145 -153 -244 -153z" />
    <glyph glyph-name="yacute" unicode="&#xfd;" horiz-adv-x="485" 
d="M211 573l108 117h104l-147 -117h-65zM31 -178v71c127 -3 152 54 177 107l-193 512h89l143 -412l140 412h90l-202 -537c-53 -139 -145 -153 -244 -153z" />
    <glyph glyph-name="ycircumflex" unicode="&#x177;" horiz-adv-x="485" 
d="M106 558l124 132h27l125 -132h-69l-69 76l-68 -76h-70zM31 -178v71c127 -3 152 54 177 107l-193 512h89l143 -412l140 412h90l-202 -537c-53 -139 -145 -153 -244 -153z" />
    <glyph glyph-name="ydieresis" unicode="&#xff;" horiz-adv-x="485" 
d="M122 592v98h82v-98h-82zM282 592v98h82v-98h-82zM31 -178v71c127 -3 152 54 177 107l-193 512h89l143 -412l140 412h90l-202 -537c-53 -139 -145 -153 -244 -153z" />
    <glyph glyph-name="ygrave" unicode="&#x1ef3;" horiz-adv-x="485" 
d="M207 572l-139 118h105l106 -118h-72zM31 -178v71c127 -3 152 54 177 107l-193 512h89l143 -412l140 412h90l-202 -537c-53 -139 -145 -153 -244 -153z" />
    <glyph glyph-name="uni1EF9" unicode="&#x1ef9;" horiz-adv-x="485" 
d="M71 576c0 69 27 115 92 115c82 0 100 -74 154 -74c34 0 47 30 47 73h53c0 -81 -38 -121 -98 -121c-78 0 -99 72 -152 72c-33 0 -46 -30 -46 -65h-50zM31 -178v71c127 -3 152 54 177 107l-193 512h89l143 -412l140 412h90l-202 -537c-53 -139 -145 -153 -244 -153z" />
    <glyph glyph-name="z" unicode="z" horiz-adv-x="454" 
d="M429 512v-67l-301 -374h298v-71h-399v61l305 381h-295v70h392z" />
    <glyph glyph-name="zacute" unicode="&#x17a;" horiz-adv-x="454" 
d="M406 690l-147 -117h-65l108 117h104zM429 512v-67l-301 -374h298v-71h-399v61l305 381h-295v70h392z" />
    <glyph glyph-name="zcaron" unicode="&#x17e;" horiz-adv-x="454" 
d="M240 559h-27l-124 131h70l68 -73l69 73h70zM429 512v-67l-301 -374h298v-71h-399v61l305 381h-295v70h392z" />
    <glyph glyph-name="zdotaccent" unicode="&#x17c;" horiz-adv-x="454" 
d="M266 690v-95h-78v95h78zM429 512v-67l-301 -374h298v-71h-399v61l305 381h-295v70h392z" />
    <glyph glyph-name="f_t" horiz-adv-x="596" 
d="M571 447h-123v-293c0 -65 19 -88 74 -88h49v-66h-73c-89 0 -131 44 -131 136v311h-77h-102v-447h-82v447h-91v65h91v32c0 89 57 146 150 146h63v-66h-56c-46 0 -75 -30 -75 -77v-35h131h48v118h81v-118h123v-65z" />
    <glyph glyph-name="t_t" horiz-adv-x="596" 
d="M571 447h-123v-293c0 -65 19 -88 74 -88h49v-66h-73c-89 0 -131 44 -131 136v311h-77h-116v-293c0 -65 19 -88 74 -88h49v-66h-73c-89 0 -131 44 -131 136v311h-77v65h77v118h81v-118h123h70v118h81v-118h123v-65z" />
    <glyph glyph-name="ordfeminine" unicode="&#xaa;" horiz-adv-x="347" 
d="M144 353c-65 0 -112 39 -112 101c0 48 29 79 72 99c46 20 104 25 163 22v28c0 54 -39 69 -84 69c-46 0 -93 -14 -93 -68h-53c0 83 76 114 142 114c75 0 139 -36 139 -119v-238h-51v49c-38 -45 -83 -57 -123 -57zM160 400c40 0 81 23 107 65v70c-48 4 -100 -1 -135 -18
c-25 -13 -42 -33 -42 -61c0 -36 28 -57 70 -56z" />
    <glyph glyph-name="ordmasculine" unicode="&#xba;" horiz-adv-x="387" 
d="M194 349c-98 0 -166 79 -166 177c0 97 68 176 166 176c97 0 165 -79 165 -176c0 -98 -68 -177 -165 -177zM194 401c73 0 101 59 101 125c0 65 -28 125 -101 125c-74 0 -102 -60 -102 -125c0 -66 28 -125 102 -125z" />
    <glyph glyph-name="pi" unicode="&#x3c0;" horiz-adv-x="510" 
d="M432 -10c-59 0 -99 55 -99 110v317h-140v-417h-71v417h-40v71h362v-71h-40v-315c0 -30 15 -52 38 -52c10 0 20 5 31 10l17 -54c-21 -11 -39 -16 -58 -16z" />
    <glyph glyph-name="zero" unicode="0" horiz-adv-x="544" 
d="M276 -10c-188 0 -241 189 -241 355c0 167 52 356 234 356c169 0 240 -169 240 -358c0 -186 -70 -353 -233 -353zM273 68c123 0 146 161 146 278c0 121 -24 275 -150 275s-150 -155 -150 -276c0 -120 24 -277 154 -277z" />
    <glyph glyph-name="one" unicode="1" horiz-adv-x="383" 
d="M201 0v587c-45 -51 -107 -79 -161 -80v85c57 3 112 35 168 98h78v-690h-85z" />
    <glyph glyph-name="two" unicode="2" horiz-adv-x="545" 
d="M55 0v78c0 268 347 230 347 422c0 75 -52 125 -123 125c-84 0 -135 -62 -132 -156h-85c1 141 81 230 219 230c120 0 206 -84 206 -200c0 -236 -349 -222 -349 -403v-22h361v-74h-444z" />
    <glyph glyph-name="three" unicode="3" horiz-adv-x="543" 
d="M272 -10c-129 0 -237 69 -237 210h80c4 -88 76 -136 157 -136c79 0 157 47 157 136c0 88 -71 128 -149 128h-49v76h49c65 0 111 39 111 108c0 70 -57 113 -131 113s-130 -44 -132 -118h-79c-4 122 87 193 211 193c118 0 211 -66 211 -180c0 -77 -49 -132 -100 -146v-8
c81 -14 134 -70 137 -168c0 -139 -107 -208 -236 -208z" />
    <glyph glyph-name="four" unicode="4" horiz-adv-x="540" 
d="M418 253h110v-72h-110v-181h-82v181h-307v69l314 440h75v-437zM336 253v323l-223 -323h223z" />
    <glyph glyph-name="five" unicode="5" horiz-adv-x="542" 
d="M299 453c124 0 215 -93 215 -227c0 -139 -99 -236 -234 -236c-117 0 -231 74 -233 219h84c6 -102 79 -145 151 -145c84 0 144 67 144 163c0 91 -61 155 -144 155c-50 0 -106 -30 -134 -75h-81l66 383h350v-73h-285l-38 -218l1 -1c26 30 85 55 138 55z" />
    <glyph glyph-name="six" unicode="6" horiz-adv-x="535" 
d="M270 -9c-132 0 -234 87 -235 304c-1 157 7 405 247 405c111 0 200 -59 210 -178h-84c-7 73 -60 103 -126 103c-146 0 -161 -163 -163 -248c37 45 91 68 159 68c133 0 222 -89 222 -224c0 -126 -98 -230 -230 -230zM268 65c87 0 149 65 149 154c0 90 -62 154 -149 154
s-145 -61 -145 -151s58 -157 145 -157z" />
    <glyph glyph-name="seven" unicode="7" horiz-adv-x="450" 
d="M120 0l228 616h-328v74h413v-81l-223 -609h-90z" />
    <glyph glyph-name="eight" unicode="8" horiz-adv-x="544" 
d="M273 -10c-139 0 -239 82 -239 199c0 86 57 162 138 180v5c-60 20 -103 83 -103 150c0 102 84 176 204 176c117 0 202 -74 202 -176c0 -69 -43 -131 -103 -150v-5c83 -20 138 -96 138 -180c0 -117 -100 -199 -237 -199zM275 401c67 0 118 47 118 114
c0 65 -51 114 -118 114c-70 0 -119 -49 -119 -112c0 -68 49 -116 119 -116zM272 62c86 0 150 57 150 137c0 79 -64 135 -150 135c-89 0 -151 -56 -151 -135c0 -80 62 -137 151 -137z" />
    <glyph glyph-name="nine" unicode="9" horiz-adv-x="535" 
d="M265 699c132 0 234 -87 235 -304c1 -157 -7 -405 -247 -405c-111 0 -200 59 -210 178h84c7 -73 60 -103 126 -103c146 0 161 163 163 248c-37 -45 -91 -68 -159 -68c-133 0 -222 89 -222 224c0 126 98 230 230 230zM267 625c-87 0 -149 -65 -149 -154
c0 -90 62 -154 149 -154s145 61 145 151s-58 157 -145 157z" />
    <glyph glyph-name="fraction" unicode="&#x2044;" horiz-adv-x="139" 
d="M-156 0l371 690h80l-370 -690h-81z" />
    <glyph glyph-name="asterisk" unicode="*" horiz-adv-x="342" 
d="M111 406l-43 35l86 100l-124 19l17 56l113 -49l-15 123h55l-17 -123l114 49l15 -56l-120 -19l85 -100l-44 -35l-61 115z" />
    <glyph glyph-name="backslash" unicode="\" horiz-adv-x="460" 
d="M339 -76l-299 766h80l300 -766h-81z" />
    <glyph glyph-name="periodcentered" unicode="&#xb7;" horiz-adv-x="241" 
d="M120 337c-35 0 -62 29 -62 64s27 62 62 62s64 -27 64 -62s-29 -64 -64 -64z" />
    <glyph glyph-name="bullet" unicode="&#x2022;" horiz-adv-x="381" 
d="M191 100c-89 0 -161 72 -161 161s72 161 161 161c88 0 160 -72 160 -161s-72 -161 -160 -161z" />
    <glyph glyph-name="colon" unicode=":" horiz-adv-x="230" 
d="M58 372v111h112v-111h-112zM58 0v110h112v-110h-112z" />
    <glyph glyph-name="comma" unicode="," horiz-adv-x="264" 
d="M176 0l-64 -152h-50l43 152h-42v110h113v-110z" />
    <glyph glyph-name="ellipsis" unicode="&#x2026;" horiz-adv-x="808" 
d="M57 0v110h112v-110h-112zM348 0v110h112v-110h-112zM639 0v110h112v-110h-112z" />
    <glyph glyph-name="exclam" unicode="!" horiz-adv-x="262" 
d="M100 190l-14 500h90l-14 -500h-62zM80 0v100h102v-100h-102z" />
    <glyph glyph-name="exclamdown" unicode="&#xa1;" horiz-adv-x="262" 
d="M80 412v100h102v-100h-102zM86 -189l14 511h62l14 -511h-90z" />
    <glyph glyph-name="numbersign" unicode="#" horiz-adv-x="638" 
d="M106 0l43 213h-114v57h126l32 159h-118v55h130l43 206h60l-42 -199h162l42 199h60l-41 -204h114v-57h-126l-32 -159h119v-55h-131l-44 -215h-61l44 209h-162l-43 -209h-61zM223 270h161l32 159h-162z" />
    <glyph glyph-name="period" unicode="." horiz-adv-x="226" 
d="M57 0v110h112v-110h-112z" />
    <glyph glyph-name="question" unicode="?" horiz-adv-x="467" 
d="M195 188v105c0 73 40 97 79 120c40 22 80 43 80 111c0 71 -54 106 -122 106c-65 0 -124 -41 -124 -111h-76c1 108 85 181 196 181c109 0 200 -59 200 -177c0 -102 -63 -126 -110 -154c-29 -18 -51 -38 -51 -77v-104h-72zM182 0v100h100v-100h-100z" />
    <glyph glyph-name="questiondown" unicode="&#xbf;" horiz-adv-x="443" 
d="M289 512v-100h-100v100h100zM276 324v-105c0 -73 -40 -97 -79 -120c-40 -22 -79 -43 -79 -111c0 -71 54 -106 121 -106c66 0 124 41 125 111h75c-1 -108 -85 -181 -196 -181c-109 0 -200 59 -200 177c0 102 63 126 110 154c29 18 52 38 52 77v104h71z" />
    <glyph glyph-name="quotedbl" unicode="&#x22;" horiz-adv-x="355" 
d="M67 423v267h68v-267h-68zM222 423v267h67v-267h-67z" />
    <glyph glyph-name="quotesingle" unicode="'" horiz-adv-x="205" 
d="M67 437v267h71v-267h-71z" />
    <glyph glyph-name="semicolon" unicode=";" horiz-adv-x="269" 
d="M175 483v-111h-112v111h112zM64 110h113v-110l-64 -152h-50l43 152h-42v110z" />
    <glyph glyph-name="slash" unicode="/" horiz-adv-x="460" 
d="M40 -76l299 766h81l-300 -766h-80z" />
    <glyph glyph-name="twodotenleader" unicode="&#x2025;" horiz-adv-x="402" 
d="M50 0v100h101v-100h-101zM252 0v100h101v-100h-101z" />
    <glyph glyph-name="underscore" unicode="_" horiz-adv-x="385" 
d="M-1 -61v61h387v-61h-387z" />
    <glyph glyph-name="braceleft" unicode="{" horiz-adv-x="285" 
d="M209 -205c-78 0 -106 57 -106 125v240c0 39 -21 65 -64 74v67c43 9 64 34 64 74v239c0 68 28 126 106 126l52 -1v-65c-60 3 -85 -7 -85 -62v-244c0 -49 -25 -76 -63 -101c38 -24 63 -52 63 -100v-245c0 -54 25 -65 85 -61v-65z" />
    <glyph glyph-name="braceright" unicode="}" horiz-adv-x="285" 
d="M75 -205l-52 1v65c60 -4 85 7 85 61v245c0 48 25 76 63 100c-38 25 -63 52 -63 101v244c0 55 -25 65 -85 62v65l52 1c78 0 106 -58 106 -126v-239c0 -40 21 -65 64 -74v-67c-43 -9 -64 -35 -64 -74v-240c0 -68 -28 -125 -106 -125z" />
    <glyph glyph-name="bracketleft" unicode="[" horiz-adv-x="274" 
d="M75 -159v889h182v-59h-114v-770h114v-60h-182z" />
    <glyph glyph-name="bracketright" unicode="]" horiz-adv-x="274" 
d="M17 -159v60h115v770h-115v59h182v-889h-182z" />
    <glyph glyph-name="parenleft" unicode="(" horiz-adv-x="266" 
d="M174 -154c-75 99 -124 295 -124 446c0 143 44 319 122 438h64c-80 -121 -120 -280 -120 -439c0 -158 39 -323 119 -445h-61z" />
    <glyph glyph-name="parenright" unicode=")" horiz-adv-x="264" 
d="M95 -154h-61c80 122 119 287 119 445c0 159 -40 318 -120 439h64c78 -119 122 -295 122 -438c0 -151 -49 -347 -124 -446z" />
    <glyph glyph-name="emdash" unicode="&#x2014;" horiz-adv-x="1000" 
d="M0 221v59h1000v-59h-1000z" />
    <glyph glyph-name="endash" unicode="&#x2013;" horiz-adv-x="385" 
d="M19 221v59h347v-59h-347z" />
    <glyph glyph-name="hyphen" unicode="-" horiz-adv-x="315" 
d="M29 221v59h257v-59h-257z" />
    <glyph glyph-name="guillemotleft" unicode="&#xab;" horiz-adv-x="514" 
d="M253 111l-186 189l186 186v-87l-94 -99l94 -100v-89zM445 111l-185 189l185 186v-87l-94 -99l94 -100v-89z" />
    <glyph glyph-name="guillemotright" unicode="&#xbb;" horiz-adv-x="516" 
d="M69 111v89l94 100l-94 99v87l185 -186zM261 111v89l94 100l-94 99v87l186 -186z" />
    <glyph glyph-name="guilsinglleft" unicode="&#x2039;" horiz-adv-x="279" 
d="M233 111l-186 188l186 189v-89l-94 -100l94 -99v-89z" />
    <glyph glyph-name="guilsinglright" unicode="&#x203a;" horiz-adv-x="279" 
d="M47 111v89l94 99l-94 100v89l186 -189z" />
    <glyph glyph-name="quotedblbase" unicode="&#x201e;" horiz-adv-x="468" 
d="M176 110v-110l-64 -152h-50l43 152h-42v110h113zM267 110h113v-110l-64 -152h-50l43 152h-42v110z" />
    <glyph glyph-name="quotedblleft" unicode="&#x201c;" horiz-adv-x="427" 
d="M113 689h50l-43 -152h42v-110h-113v110zM357 689l-43 -152h42v-110h-113v110l64 152h50z" />
    <glyph glyph-name="quotedblright" unicode="&#x201d;" horiz-adv-x="442" 
d="M69 580v110h113v-110l-64 -152h-50l43 152h-42zM273 690h113v-110l-64 -152h-50l43 152h-42v110z" />
    <glyph glyph-name="quoteleft" unicode="&#x2018;" horiz-adv-x="232" 
d="M163 690l-43 -152h42v-110h-113v110l64 152h50z" />
    <glyph glyph-name="quoteright" unicode="&#x2019;" horiz-adv-x="238" 
d="M69 690h113v-110l-64 -153h-50l43 153h-42v110z" />
    <glyph glyph-name="quotesinglbase" unicode="&#x201a;" horiz-adv-x="264" 
d="M176 0l-64 -152h-50l43 152h-42v110h113v-110z" />
    <glyph glyph-name="space" unicode=" " horiz-adv-x="229" 
 />
    <glyph glyph-name="cent" unicode="&#xa2;" horiz-adv-x="545" 
d="M284 62c83 0 142 43 147 128h79c-8 -112 -81 -182 -182 -198v-100h-71v98c-127 11 -216 103 -216 264c0 164 89 256 216 267v99h71v-101c102 -16 176 -87 183 -201h-79c-5 87 -64 132 -148 132c-97 0 -162 -62 -162 -196c0 -131 65 -192 162 -192z" />
    <glyph glyph-name="currency" unicode="&#xa4;" horiz-adv-x="601" 
d="M112 33l-75 74l96 85c-22 32 -35 73 -35 115c0 43 13 83 35 115l-103 78l74 74l78 -102c32 24 71 37 114 37c44 0 82 -13 114 -36l84 96l75 -74l-109 -73c22 -32 34 -72 34 -115c0 -42 -11 -81 -34 -115l107 -85l-75 -74l-81 108c-32 -22 -71 -36 -115 -36
c-43 0 -82 13 -114 37zM296 181c71 1 116 53 116 126s-45 125 -116 126c-70 -1 -116 -53 -116 -126s46 -125 116 -126z" />
    <glyph glyph-name="dollar" unicode="$" horiz-adv-x="541" 
d="M506 189c0 -111 -81 -188 -201 -196v-83h-71v85c-103 15 -208 79 -208 236h89c0 -117 79 -162 170 -162c78 0 134 40 134 110c0 82 -83 113 -166 146c-93 36 -201 76 -201 198c0 100 71 166 182 176v81h71v-83c100 -12 180 -71 180 -193h-86c1 87 -57 122 -137 122
c-76 0 -124 -37 -124 -96c0 -70 78 -100 158 -133c94 -38 210 -81 210 -208z" />
    <glyph glyph-name="Euro" unicode="&#x20ac;" horiz-adv-x="655" 
d="M567 122l51 -46c-53 -57 -123 -86 -212 -86c-166 0 -264 108 -293 255h-119l27 53h84c-1 15 -2 31 -2 46c0 13 1 25 1 37h-122l27 54h102c27 150 123 266 295 266c72 0 132 -21 180 -60l-25 -70c-49 46 -103 62 -155 62c-124 0 -192 -87 -215 -198h315l-25 -55l-298 1
c-1 -13 -1 -26 -1 -38c0 -15 1 -30 2 -45h265l-22 -53h-235c25 -104 92 -183 218 -183c58 0 115 17 157 60z" />
    <glyph glyph-name="florin" unicode="&#x192;" horiz-adv-x="465" 
d="M21 -223v71c116 0 165 44 165 152v418h-87v70h87v76c0 84 43 143 135 143c64 0 134 -26 134 -145h-67c0 57 -29 79 -67 79c-42 0 -64 -22 -64 -79v-74h149v-70h-149v-418c0 -146 -91 -223 -236 -223z" />
    <glyph glyph-name="sterling" unicode="&#xa3;" horiz-adv-x="544" 
d="M32 0v64s119 77 119 173c0 19 -5 52 -12 71h-106v70h88c-4 13 -22 56 -22 115c0 118 76 208 192 208c110 0 174 -61 190 -154h-77c-9 59 -50 84 -114 84c-72 0 -121 -51 -121 -141c0 -47 13 -87 24 -112h219v-70h-201c6 -19 9 -51 9 -70c0 -115 -81 -168 -81 -168h396
v-70h-503z" />
    <glyph glyph-name="yen" unicode="&#xa5;" horiz-adv-x="589" 
d="M258 3v83h-148v60h148v114h-148v58h125l-232 372h81l211 -340l210 340h81l-233 -371h125v-59h-147v-114h147v-60h-147v-83h-73z" />
    <glyph glyph-name="uni2206" unicode="&#x2206;" horiz-adv-x="551" 
d="M4 0l272 702l272 -702h-544zM109 71h334l-167 440z" />
    <glyph glyph-name="uni2126" unicode="&#x2126;" horiz-adv-x="721" 
d="M37 0v70h162c-97 54 -160 162 -160 283c0 184 144 334 322 334c179 0 321 -151 321 -336c0 -118 -57 -227 -152 -280h154v-71h-250v71c104 29 173 150 173 279c0 166 -114 266 -246 266c-138 0 -247 -110 -247 -263c0 -125 73 -238 172 -282v-71h-249z" />
    <glyph glyph-name="approxequal" unicode="&#x2248;" horiz-adv-x="507" 
d="M324 350c-81 0 -107 85 -163 85c-33 0 -42 -31 -40 -72h-58c-1 74 32 128 97 128c99 0 114 -84 167 -84c35 0 47 30 46 81h61c2 -86 -39 -138 -110 -138zM324 170c-81 0 -107 84 -163 84c-33 0 -42 -30 -40 -71h-58c-1 74 32 128 97 128c99 0 114 -83 167 -83
c35 0 47 29 46 80h61c2 -86 -39 -138 -110 -138z" />
    <glyph glyph-name="asciitilde" unicode="~" horiz-adv-x="428" 
d="M294 182c-81 0 -107 84 -163 84c-33 0 -42 -30 -40 -71h-58c-1 75 32 128 97 128c99 0 114 -82 167 -82c37 0 47 29 46 79h61c2 -86 -39 -138 -110 -138z" />
    <glyph glyph-name="divide" unicode="&#xf7;" horiz-adv-x="514" 
d="M206 398v101h101v-101h-101zM70 221v61h374v-61h-374zM206 -4v100h101v-100h-101z" />
    <glyph glyph-name="equal" unicode="=" horiz-adv-x="516" 
d="M70 381v73h376v-73h-376zM70 202v73h376v-73h-376z" />
    <glyph glyph-name="greater" unicode="&#x3e;" horiz-adv-x="588" 
d="M90 79v78l317 172l-317 174v76l452 -250z" />
    <glyph glyph-name="greaterequal" unicode="&#x2265;" horiz-adv-x="585" 
d="M80 47v79l317 172l-317 174v76l452 -250zM80 -61v61h459v-61h-459z" />
    <glyph glyph-name="infinity" unicode="&#x221e;" horiz-adv-x="784" 
d="M194 167c-113 0 -180 77 -180 192s67 192 180 192c73 0 145 -42 198 -116c53 74 125 116 198 116c113 0 180 -77 180 -192s-67 -192 -180 -192c-73 0 -145 42 -198 116c-53 -74 -125 -116 -198 -116zM209 238c52 0 110 46 146 121c-36 74 -94 121 -146 121
c-69 0 -117 -44 -117 -121s48 -121 117 -121zM575 238c69 0 117 44 117 121s-48 121 -117 121c-52 0 -110 -46 -146 -121c36 -74 94 -121 146 -121z" />
    <glyph glyph-name="integral" unicode="&#x222b;" horiz-adv-x="418" 
d="M10 -223v71c116 0 165 44 165 152v563c0 85 59 144 132 144c35 0 70 -13 101 -38l-48 -56c-17 16 -36 23 -53 23c-31 0 -62 -23 -62 -72v-563c0 -148 -90 -224 -235 -224z" />
    <glyph glyph-name="less" unicode="&#x3c;" horiz-adv-x="583" 
d="M505 79l-452 250l452 250v-76l-317 -174l317 -172v-78z" />
    <glyph glyph-name="lessequal" unicode="&#x2264;" horiz-adv-x="594" 
d="M505 47l-452 251l452 250v-76l-317 -174l317 -172v-79zM506 -61h-460v61h460v-61z" />
    <glyph glyph-name="logicalnot" unicode="&#xac;" horiz-adv-x="574" 
d="M428 133v183h-358v73h434v-256h-76z" />
    <glyph glyph-name="uni00B5" unicode="&#xb5;" horiz-adv-x="493" 
d="M77 -130v618h82v-290c0 -66 20 -135 97 -135c78 0 143 69 143 147v278h82v-488h-82v83c-21 -44 -79 -94 -151 -94c-35 0 -64 9 -88 23l-11 -142h-72z" />
    <glyph glyph-name="multiply" unicode="&#xd7;" horiz-adv-x="478" 
d="M82 103l-45 46l156 156l-155 155l46 45l155 -154l156 156l45 -46l-155 -156l154 -155l-46 -45l-155 154z" />
    <glyph glyph-name="notequal" unicode="&#x2260;" horiz-adv-x="590" 
d="M70 0l111 208h-105v71h143l53 98h-196v71h234l130 242h80l-123 -242h109v-71h-154l-52 -98h206v-71h-244l-112 -208h-80z" />
    <glyph glyph-name="partialdiff" unicode="&#x2202;" horiz-adv-x="599" 
d="M256 -6c-134 0 -211 89 -211 220c0 163 118 297 271 297c68 0 112 -27 138 -70c-11 123 -64 187 -155 187c-45 0 -85 -15 -112 -69l-67 31c33 70 100 108 184 108c160 0 228 -136 228 -323c0 -224 -98 -381 -276 -381zM256 67c116 0 187 110 187 227
c0 89 -42 145 -124 145c-119 0 -192 -120 -192 -228c0 -84 45 -144 129 -144z" />
    <glyph glyph-name="percent" unicode="%" horiz-adv-x="746" 
d="M172 386c-99 0 -128 94 -128 157s28 158 125 158c88 0 129 -84 129 -159c0 -74 -40 -156 -126 -156zM142 -3l375 699h79l-374 -699h-80zM170 448c41 0 60 51 60 95c0 47 -19 93 -61 93c-41 0 -59 -47 -59 -93c0 -45 18 -95 60 -95zM576 -1c-99 0 -128 94 -128 157
c0 64 28 159 125 159c88 0 129 -83 129 -159c0 -75 -40 -157 -126 -157zM575 62c40 0 59 50 59 95c0 47 -19 95 -61 95c-40 0 -59 -49 -59 -96c0 -45 18 -94 61 -94z" />
    <glyph glyph-name="perthousand" unicode="&#x2030;" horiz-adv-x="1014" 
d="M157 386c-99 0 -128 94 -128 157s28 158 125 158c88 0 129 -84 129 -159c0 -74 -40 -156 -126 -156zM127 -3l375 699h79l-374 -699h-80zM155 448c41 0 60 51 60 95c0 47 -19 93 -61 93c-41 0 -59 -47 -59 -93c0 -45 18 -95 60 -95zM561 -1c-99 0 -128 94 -128 157
c0 64 28 159 125 159c88 0 129 -83 129 -159c0 -75 -40 -157 -126 -157zM860 -1c-98 0 -128 94 -128 157c0 64 29 159 125 159c88 0 128 -83 128 -159c0 -75 -39 -157 -125 -157zM560 62c40 0 59 50 59 95c0 47 -19 95 -61 95c-40 0 -59 -49 -59 -96c0 -45 18 -94 61 -94z
M858 62c41 0 60 50 60 95c0 47 -20 95 -61 95s-60 -49 -60 -96c0 -45 19 -94 61 -94z" />
    <glyph glyph-name="plus" unicode="+" horiz-adv-x="647" 
d="M293 46v229h-223v60h223v229h61v-229h223v-60h-223v-229h-61z" />
    <glyph glyph-name="plusminus" unicode="&#xb1;" horiz-adv-x="647" 
d="M293 52v223h-223v60h223v229h61v-229h223v-60h-223v-223h-61zM71 -61v61h506v-61h-506z" />
    <glyph glyph-name="product" unicode="&#x220f;" horiz-adv-x="665" 
d="M134 0v619h-40v71h477v-71h-40v-619h-71v619h-255v-619h-71z" />
    <glyph glyph-name="radical" unicode="&#x221a;" horiz-adv-x="540" 
d="M225 -92l-127 371h-74v70h125l80 -252l225 597l67 -27z" />
    <glyph glyph-name="summation" unicode="&#x2211;" horiz-adv-x="568" 
d="M34 0v35l283 310l-283 311v34h500v-71h-369l254 -274l-254 -274h369v-71h-500z" />
    <glyph glyph-name="lozenge" unicode="&#x25ca;" horiz-adv-x="522" 
d="M220 0l-181 350l181 350h83l180 -350l-180 -350h-83zM261 80l136 270l-136 270l-136 -270z" />
    <glyph glyph-name="bar" unicode="|" horiz-adv-x="249" 
d="M95 -76v825h59v-825h-59z" />
    <glyph glyph-name="brokenbar" unicode="&#xa6;" horiz-adv-x="250" 
d="M93 371v319h64v-319h-64zM93 -76v309h64v-309h-64z" />
    <glyph glyph-name="at" unicode="@" horiz-adv-x="963" 
d="M484 -169c-236 -2 -422 194 -422 434s185 434 422 434c239 0 428 -193 428 -429c0 -115 -46 -231 -136 -269h-163c-32 23 -46 61 -40 108c-37 -47 -95 -74 -154 -74c-100 0 -151 81 -151 181c0 127 79 290 223 290c66 0 120 -35 132 -92l12 67h73l-70 -361
c-5 -23 -5 -42 5 -56l119 2c61 39 79 142 79 210c0 191 -157 355 -357 355c-198 0 -351 -163 -351 -364s153 -365 351 -363v-73zM427 106c112 0 170 126 170 221c0 66 -29 107 -93 107c-111 0 -169 -124 -169 -220c0 -66 28 -108 92 -108z" />
    <glyph glyph-name="ampersand" unicode="&#x26;" horiz-adv-x="661" 
d="M512 158l151 -158h-116l-86 91c-50 -66 -111 -103 -203 -103c-116 0 -216 68 -216 192c0 97 63 160 156 196c-31 32 -81 84 -81 156c0 109 84 165 175 165s169 -56 169 -161c0 -68 -44 -124 -144 -177l140 -145l87 148h94zM293 629c-53 0 -92 -40 -92 -97
c0 -45 38 -92 67 -122v-1c82 42 113 80 113 126c0 53 -37 94 -88 94zM259 58c66 0 107 30 146 91l-163 173c-69 -31 -112 -70 -112 -141c0 -74 64 -123 129 -123z" />
    <glyph glyph-name="paragraph" unicode="&#xb6;" horiz-adv-x="553" 
d="M260 -140v444c-114 0 -221 71 -221 193s107 193 221 193h61v-830h-61zM409 -140v830h62v-830h-62z" />
    <glyph glyph-name="copyright" unicode="&#xa9;" horiz-adv-x="817" 
d="M408 -26c-201 0 -366 167 -366 371c0 205 165 371 366 371s367 -166 367 -371c0 -204 -166 -371 -367 -371zM408 26c172 0 314 146 314 319s-142 319 -314 319c-170 0 -314 -146 -314 -319s144 -319 314 -319zM416 144c-119 0 -177 91 -177 200s58 200 176 200
c74 0 142 -40 151 -143h-66c-5 61 -46 80 -85 80c-79 0 -113 -65 -113 -137c0 -71 33 -136 112 -136c41 0 83 19 86 82h67c-8 -101 -78 -146 -151 -146z" />
    <glyph glyph-name="registered" unicode="&#xae;" horiz-adv-x="619" 
d="M309 172c-143 0 -258 118 -258 264s115 264 258 264s259 -118 259 -264s-116 -264 -259 -264zM309 214c119 0 220 102 220 222s-101 223 -220 223s-219 -103 -219 -223s100 -222 219 -222zM221 298v273h106c62 0 94 -30 94 -80c0 -46 -26 -68 -55 -77l70 -116h-59
l-60 111h-45v-111h-51zM269 452h58c30 0 47 11 47 39c0 26 -17 38 -47 38h-58v-77z" />
    <glyph glyph-name="section" unicode="&#xa7;" horiz-adv-x="514" 
d="M265 -9c-96 0 -186 34 -201 160h77c14 -68 60 -91 126 -91c56 0 112 17 112 74c0 125 -292 33 -292 215c0 49 19 85 52 111c-34 21 -51 57 -51 98c0 92 81 142 175 142c84 0 172 -37 185 -151h-76c-5 68 -58 83 -111 83c-61 0 -103 -30 -103 -76c0 -118 292 -27 292 -214
c0 -47 -15 -82 -48 -108c34 -24 48 -57 48 -98c0 -103 -88 -145 -185 -145zM328 265c41 18 51 53 48 76c-3 77 -114 81 -164 95c-36 -15 -54 -48 -52 -78c2 -73 116 -77 168 -93z" />
    <glyph glyph-name="trademark" unicode="&#x2122;" horiz-adv-x="585" 
d="M6 643v47h216v-47h-82v-215h-52v215h-82zM463 690h68v-262h-52v183l-58 -183h-46l-60 186v-186h-52v262h71l63 -208z" />
    <glyph glyph-name="degree" unicode="&#xb0;" horiz-adv-x="371" 
d="M185 405c-82 0 -148 65 -148 148s66 147 148 147c83 0 149 -64 149 -147s-66 -148 -149 -148zM185 465c49 0 88 38 88 88c0 49 -39 88 -88 88c-48 0 -87 -39 -87 -88c0 -50 39 -88 87 -88z" />
    <glyph glyph-name="asciicircum" unicode="^" horiz-adv-x="385" 
d="M10 326l182 363l183 -363h-79l-104 224l-102 -224h-80z" />
    <glyph glyph-name="dagger" unicode="&#x2020;" horiz-adv-x="388" 
d="M161 -100v516h-108v66h108v208h66v-208h108v-66h-108v-516h-66z" />
    <glyph glyph-name="daggerdbl" unicode="&#x2021;" horiz-adv-x="388" 
d="M161 -100v208h-108v66h108v242h-108v66h108v208h66v-208h108v-66h-108v-242h108v-66h-108v-208h-66z" />
    <glyph glyph-name="uni0308" unicode="&#x308;" horiz-adv-x="0" 
d="M-262 568v98h82v-98h-82zM-102 568v98h82v-98h-82z" />
    <glyph glyph-name="uni0307" unicode="&#x307;" horiz-adv-x="0" 
d="M-98 571v95h78v-95h-78z" />
    <glyph glyph-name="gravecomb" unicode="&#x300;" horiz-adv-x="0" 
d="M-68 548l-139 118h105l106 -118h-72z" />
    <glyph glyph-name="acutecomb" unicode="&#x301;" horiz-adv-x="0" 
d="M-198 549l108 117h104l-147 -117h-65z" />
    <glyph glyph-name="uni030B" unicode="&#x30b;" horiz-adv-x="0" 
d="M-369 552l104 114h97l-128 -114h-73zM-202 552l103 114h102l-133 -114h-72z" />
    <glyph glyph-name="uni0302" unicode="&#x302;" horiz-adv-x="0" 
d="M-297 540l124 132h27l125 -132h-69l-69 76l-68 -76h-70z" />
    <glyph glyph-name="uni030C" unicode="&#x30c;" horiz-adv-x="0" 
d="M-174 535l-124 131h70l68 -73l69 73h70l-126 -131h-27z" />
    <glyph glyph-name="uni0306" unicode="&#x306;" horiz-adv-x="0" 
d="M-147 534c-83 0 -150 47 -150 132h65c0 -47 38 -77 85 -77c46 0 84 31 84 77h65c0 -85 -66 -132 -149 -132z" />
    <glyph glyph-name="uni030A" unicode="&#x30a;" horiz-adv-x="0" 
d="M-97 527c-55 0 -97 44 -97 99c0 54 43 97 97 97s98 -42 98 -97c0 -54 -43 -99 -98 -99zM-97 573c29 0 53 22 53 52s-22 53 -53 53s-52 -21 -52 -53c0 -31 23 -52 52 -52z" />
    <glyph glyph-name="tildecomb" unicode="&#x303;" horiz-adv-x="0" 
d="M-345 529c0 69 27 115 92 115c82 0 100 -74 154 -74c34 0 47 30 47 73h53c0 -81 -38 -121 -98 -121c-78 0 -99 72 -152 72c-33 0 -46 -30 -46 -65h-50z" />
    <glyph glyph-name="uni0304" unicode="&#x304;" horiz-adv-x="0" 
d="M-292 580v54h264v-54h-264z" />
    <glyph glyph-name="uni0312" unicode="&#x312;" horiz-adv-x="0" 
d="M146 694l-60 -132h-101l110 132h51z" />
    <glyph glyph-name="uni0326" unicode="&#x326;" horiz-adv-x="0" 
d="M-159 -217l60 148h101l-110 -148h-51z" />
    <glyph glyph-name="uni0327" unicode="&#x327;" horiz-adv-x="0" 
d="M-91 -244c-44 0 -77 28 -91 62l45 23c9 -24 20 -36 52 -36c15 0 36 9 36 36c1 23 -6 43 -43 55l-59 19l45 85h57l-40 -62c71 -20 93 -50 93 -93c0 -59 -47 -89 -95 -89z" />
    <glyph glyph-name="uni0328" unicode="&#x328;" horiz-adv-x="0" 
d="M-57 -220c-60 0 -101 38 -101 99c0 50 30 96 81 127l42 -6c-46 -37 -71 -71 -71 -111c0 -39 22 -57 48 -56c18 1 40 11 54 32l45 -30c-21 -32 -52 -55 -98 -55z" />
    <glyph glyph-name="uni0335" unicode="&#x335;" horiz-adv-x="0" 
d="M-595 256v44h313v-44h-313z" />
    <glyph glyph-name="uni0336" unicode="&#x336;" horiz-adv-x="0" 
d="M-605 259v38h612v-38h-612z" />
    <glyph glyph-name="uni0337" unicode="&#x337;" horiz-adv-x="0" 
d="M-415 26v106l375 298v-109z" />
    <glyph glyph-name="uni0338" unicode="&#x338;" horiz-adv-x="0" 
d="M-591 37l-43 44l589 589l44 -43z" />
    <glyph glyph-name="acute" unicode="&#xb4;" horiz-adv-x="198" 
d="M0 549l108 117h104l-147 -117h-65z" />
    <glyph glyph-name="breve" unicode="&#x2d8;" horiz-adv-x="296" 
d="M149 534c-83 0 -150 47 -150 132h65c0 -47 38 -77 85 -77c46 0 84 31 84 77h65c0 -85 -66 -132 -149 -132z" />
    <glyph glyph-name="caron" unicode="&#x2c7;" horiz-adv-x="320" 
d="M146 535l-124 131h70l68 -73l69 73h70l-126 -131h-27z" />
    <glyph glyph-name="cedilla" unicode="&#xb8;" horiz-adv-x="187" 
d="M96 -244c-44 0 -77 28 -91 62l45 23c4 -18 20 -36 44 -36c23 0 44 19 44 45c1 24 -17 38 -43 46l-59 19l45 85h57l-40 -62c61 -17 93 -41 93 -84c0 -59 -47 -98 -95 -98z" />
    <glyph glyph-name="circumflex" unicode="&#x2c6;" horiz-adv-x="320" 
d="M23 540l124 132h27l125 -132h-69l-69 76l-68 -76h-70z" />
    <glyph glyph-name="dieresis" unicode="&#xa8;" horiz-adv-x="282" 
d="M20 568v98h82v-98h-82zM180 568v98h82v-98h-82z" />
    <glyph glyph-name="dotaccent" unicode="&#x2d9;" horiz-adv-x="118" 
d="M20 571v95h78v-95h-78z" />
    <glyph glyph-name="grave" unicode="`" horiz-adv-x="198" 
d="M130 548l-139 118h105l106 -118h-72z" />
    <glyph glyph-name="hungarumlaut" unicode="&#x2dd;" horiz-adv-x="363" 
d="M-6 552l104 114h97l-128 -114h-73zM161 552l103 114h102l-133 -114h-72z" />
    <glyph glyph-name="macron" unicode="&#xaf;" horiz-adv-x="321" 
d="M29 580v54h264v-54h-264z" />
    <glyph glyph-name="ogonek" unicode="&#x2db;" horiz-adv-x="225" 
d="M168 -220c-60 0 -101 38 -101 99c0 50 30 96 81 127l42 -6c-46 -37 -71 -71 -71 -111c0 -39 22 -57 48 -56c18 1 40 11 54 32l45 -30c-21 -32 -52 -55 -98 -55z" />
    <glyph glyph-name="ring" unicode="&#x2da;" horiz-adv-x="193" 
d="M96 527c-55 0 -97 44 -97 99c0 54 43 97 97 97s98 -42 98 -97c0 -54 -43 -99 -98 -99zM96 573c29 0 53 22 53 52s-22 53 -53 53s-52 -21 -52 -53c0 -31 23 -52 52 -52z" />
    <glyph glyph-name="tilde" unicode="&#x2dc;" horiz-adv-x="346" 
d="M1 529c0 69 27 115 92 115c82 0 100 -74 154 -74c34 0 47 30 47 73h53c0 -81 -38 -121 -98 -121c-78 0 -99 72 -152 72c-33 0 -46 -30 -46 -65h-50z" />
    <glyph glyph-name="HankenDesign" horiz-adv-x="904" 
d="M452 -30c-209 0 -378 169 -378 378s169 378 378 378s378 -169 378 -378s-169 -378 -378 -378zM452 5c190 0 343 153 343 343s-153 343 -343 343s-343 -153 -343 -343s153 -343 343 -343zM255 200c-9 0 -17 7 -17 17v262c0 10 8 18 17 18c10 0 18 -8 18 -18v-262
c0 -10 -8 -17 -18 -17zM452 200c-10 0 -17 7 -17 17v262c0 10 7 18 17 18s17 -8 17 -18v-262c0 -10 -7 -17 -17 -17zM648 200c-4 0 -8 1 -11 5l-132 131c-3 3 -4 8 -4 12c0 5 1 9 4 12l132 131c3 4 7 6 11 6c9 0 18 -9 18 -19c0 -3 -1 -7 -5 -11l-119 -119l119 -119
c4 -4 5 -8 5 -11c0 -10 -9 -18 -18 -18zM321 331c-10 0 -17 7 -17 17s7 17 17 17h65c10 0 18 -7 18 -17s-8 -17 -18 -17h-65z" />
    </font>
</defs>
</svg>
